 0
SECTION
 2
ENTITIES
  0
LINE
 8
Layer0
10
0.97725
20
0.0
30
0.625
11
2.02275
21
0.0
31
0.625
  0
LINE
 8
Layer0
10
0.97725
20
-6.0
30
0.625
11
0.97725
21
0.0
31
0.625
  0
LINE
 8
Layer0
10
2.02275
20
-6.0
30
0.625
11
0.97725
21
-6.0
31
0.625
  0
LINE
 8
Layer0
10
2.02275
20
-6.0
30
0.625
11
2.02275
21
0.0
31
0.625
  0
LINE
 8
Layer0
10
0.97725
20
0.0
30
0.75
11
0.97725
21
0.0
31
0.625
  0
LINE
 8
Layer0
10
2.02275
20
0.0
30
0.75
11
2.02275
21
0.0
31
0.625
  0
LINE
 8
Layer0
10
0.97725
20
-6.0
30
0.75
11
0.97725
21
-6.0
31
0.625
  0
LINE
 8
Layer0
10
2.02275
20
-6.0
30
0.75
11
2.02275
21
-6.0
31
0.625
  0
LINE
 8
Layer0
10
2.02275
20
-6.0
30
0.75
11
2.02275
21
0.0
31
0.75
  0
LINE
 8
Layer0
10
0.0
20
-6.0
30
0.75
11
0.0
21
0.0
31
0.75
  0
LINE
 8
Layer0
10
0.97725
20
-6.0
30
0.75
11
0.0
21
-6.0
31
0.75
  0
LINE
 8
Layer0
10
0.97725
20
-6.0
30
0.75
11
0.97725
21
0.0
31
0.75
  0
LINE
 8
Layer0
10
0.0
20
0.0
30
0.75
11
0.97725
21
0.0
31
0.75
  0
LINE
 8
Layer0
10
0.0
20
-6.0
30
0.0
11
0.0
21
-6.0
31
0.75
  0
LINE
 8
Layer0
10
0.0
20
0.0
30
0.0
11
0.0
21
0.0
31
0.75
  0
LINE
 8
Layer0
10
0.0
20
-6.0
30
0.0
11
0.0
21
0.0
31
0.0
  0
LINE
 8
Layer0
10
0.0
20
0.0
30
0.0
11
3.0
21
0.0
31
0.0
  0
LINE
 8
Layer0
10
3.0
20
-6.0
30
0.75
11
2.02275
21
-6.0
31
0.75
  0
LINE
 8
Layer0
10
2.02275
20
0.0
30
0.75
11
3.0
21
0.0
31
0.75
  0
LINE
 8
Layer0
10
3.0
20
-6.0
30
0.0
11
3.0
21
-6.0
31
0.75
  0
LINE
 8
Layer0
10
3.0
20
0.0
30
0.0
11
3.0
21
0.0
31
0.75
  0
LINE
 8
Layer0
10
3.0
20
0.0
30
0.75
11
3.0
21
-6.0
31
0.75
  0
LINE
 8
Layer0
10
3.0
20
0.0
30
0.0
11
3.0
21
-6.0
31
0.0
  0
LINE
 8
Layer0
10
3.0
20
-6.0
30
0.0
11
0.0
21
-6.0
31
0.0
  0
LINE
 8
Layer0
10
2.386375
20
-1.0
30
0.75
11
2.39063427171387
21
-0.967647619362185
31
0.75
  0
LINE
 8
Layer0
10
2.47902261936219
20
-0.879259271713867
30
0.75
11
2.511375
21
-0.875
31
0.75
  0
LINE
 8
Layer0
10
2.511375
20
-0.875
30
0.75
11
2.54372738063782
21
-0.879259271713866
31
0.75
  0
LINE
 8
Layer0
10
2.54372738063782
20
-1.12074072828613
30
0.75
11
2.511375
21
-1.125
31
0.75
  0
LINE
 8
Layer0
10
2.511375
20
-3.125
30
0.75
11
2.47902261936219
21
-3.12074072828613
31
0.75
  0
LINE
 8
Layer0
10
2.47902261936219
20
-3.12074072828613
30
0.75
11
2.448875
21
-3.10825317547305
31
0.75
  0
LINE
 8
Layer0
10
2.448875
20
-3.10825317547305
30
0.75
11
2.42298665235168
21
-3.08838834764832
31
0.75
  0
LINE
 8
Layer0
10
2.42298665235168
20
-3.08838834764832
30
0.75
11
2.40312182452695
21
-3.0625
31
0.75
  0
LINE
 8
Layer0
10
2.40312182452695
20
-3.0625
30
0.75
11
2.39063427171387
21
-3.03235238063781
31
0.75
  0
LINE
 8
Layer0
10
2.39063427171387
20
-3.03235238063781
30
0.75
11
2.386375
21
-3.0
31
0.75
  0
LINE
 8
Layer0
10
2.386375
20
-3.0
30
0.75
11
2.39063427171387
21
-2.96764761936219
31
0.75
  0
LINE
 8
Layer0
10
2.39063427171387
20
-2.96764761936219
30
0.75
11
2.40312182452695
21
-2.9375
31
0.75
  0
LINE
 8
Layer0
10
2.40312182452695
20
-2.9375
30
0.75
11
2.42298665235168
21
-2.91161165235168
31
0.75
  0
LINE
 8
Layer0
10
2.42298665235168
20
-2.91161165235168
30
0.75
11
2.448875
21
-2.89174682452695
31
0.75
  0
LINE
 8
Layer0
10
2.448875
20
-2.89174682452695
30
0.75
11
2.47902261936219
21
-2.87925927171387
31
0.75
  0
LINE
 8
Layer0
10
2.47902261936219
20
-2.87925927171387
30
0.75
11
2.511375
21
-2.875
31
0.75
  0
LINE
 8
Layer0
10
2.511375
20
-2.875
30
0.75
11
2.54372738063782
21
-2.87925927171387
31
0.75
  0
LINE
 8
Layer0
10
2.54372738063782
20
-2.87925927171387
30
0.75
11
2.573875
21
-2.89174682452695
31
0.75
  0
LINE
 8
Layer0
10
2.573875
20
-2.89174682452695
30
0.75
11
2.59976334764832
21
-2.91161165235168
31
0.75
  0
LINE
 8
Layer0
10
2.59976334764832
20
-2.91161165235168
30
0.75
11
2.61962817547305
21
-2.9375
31
0.75
  0
LINE
 8
Layer0
10
2.61962817547305
20
-2.9375
30
0.75
11
2.63211572828613
21
-2.96764761936219
31
0.75
  0
LINE
 8
Layer0
10
2.63211572828613
20
-2.96764761936219
30
0.75
11
2.636375
21
-3.0
31
0.75
  0
LINE
 8
Layer0
10
2.636375
20
-3.0
30
0.75
11
2.63211572828613
21
-3.03235238063781
31
0.75
  0
LINE
 8
Layer0
10
2.63211572828613
20
-3.03235238063781
30
0.75
11
2.61962817547305
21
-3.0625
31
0.75
  0
LINE
 8
Layer0
10
2.61962817547305
20
-3.0625
30
0.75
11
2.59976334764832
21
-3.08838834764832
31
0.75
  0
LINE
 8
Layer0
10
2.59976334764832
20
-3.08838834764832
30
0.75
11
2.573875
21
-3.10825317547305
31
0.75
  0
LINE
 8
Layer0
10
2.573875
20
-3.10825317547305
30
0.75
11
2.54372738063782
21
-3.12074072828613
31
0.75
  0
LINE
 8
Layer0
10
2.54372738063782
20
-3.12074072828613
30
0.75
11
2.511375
21
-3.125
31
0.75
  0
LINE
 8
Layer0
10
2.511375
20
-5.125
30
0.75
11
2.47902261936219
21
-5.12074072828613
31
0.75
  0
LINE
 8
Layer0
10
2.47902261936219
20
-5.12074072828613
30
0.75
11
2.448875
21
-5.10825317547306
31
0.75
  0
LINE
 8
Layer0
10
2.448875
20
-5.10825317547306
30
0.75
11
2.42298665235168
21
-5.08838834764832
31
0.75
  0
LINE
 8
Layer0
10
2.42298665235168
20
-5.08838834764832
30
0.75
11
2.40312182452695
21
-5.0625
31
0.75
  0
LINE
 8
Layer0
10
2.40312182452695
20
-5.0625
30
0.75
11
2.39063427171387
21
-5.03235238063781
31
0.75
  0
LINE
 8
Layer0
10
2.39063427171387
20
-5.03235238063781
30
0.75
11
2.386375
21
-5.0
31
0.75
  0
LINE
 8
Layer0
10
2.386375
20
-5.0
30
0.75
11
2.39063427171387
21
-4.96764761936219
31
0.75
  0
LINE
 8
Layer0
10
2.39063427171387
20
-4.96764761936219
30
0.75
11
2.40312182452695
21
-4.9375
31
0.75
  0
LINE
 8
Layer0
10
2.40312182452695
20
-4.9375
30
0.75
11
2.42298665235168
21
-4.91161165235168
31
0.75
  0
LINE
 8
Layer0
10
2.42298665235168
20
-4.91161165235168
30
0.75
11
2.448875
21
-4.89174682452694
31
0.75
  0
LINE
 8
Layer0
10
2.448875
20
-4.89174682452694
30
0.75
11
2.47902261936219
21
-4.87925927171387
31
0.75
  0
LINE
 8
Layer0
10
2.47902261936219
20
-4.87925927171387
30
0.75
11
2.511375
21
-4.875
31
0.75
  0
LINE
 8
Layer0
10
2.511375
20
-4.875
30
0.75
11
2.54372738063782
21
-4.87925927171387
31
0.75
  0
LINE
 8
Layer0
10
2.54372738063782
20
-4.87925927171387
30
0.75
11
2.573875
21
-4.89174682452694
31
0.75
  0
LINE
 8
Layer0
10
2.573875
20
-4.89174682452694
30
0.75
11
2.59976334764832
21
-4.91161165235168
31
0.75
  0
LINE
 8
Layer0
10
2.59976334764832
20
-4.91161165235168
30
0.75
11
2.61962817547305
21
-4.9375
31
0.75
  0
LINE
 8
Layer0
10
2.61962817547305
20
-4.9375
30
0.75
11
2.63211572828613
21
-4.96764761936219
31
0.75
  0
LINE
 8
Layer0
10
2.63211572828613
20
-4.96764761936219
30
0.75
11
2.636375
21
-5.0
31
0.75
  0
LINE
 8
Layer0
10
2.636375
20
-5.0
30
0.75
11
2.63211572828613
21
-5.03235238063781
31
0.75
  0
LINE
 8
Layer0
10
2.63211572828613
20
-5.03235238063781
30
0.75
11
2.61962817547305
21
-5.0625
31
0.75
  0
LINE
 8
Layer0
10
2.61962817547305
20
-5.0625
30
0.75
11
2.59976334764832
21
-5.08838834764832
31
0.75
  0
LINE
 8
Layer0
10
2.59976334764832
20
-5.08838834764832
30
0.75
11
2.573875
21
-5.10825317547306
31
0.75
  0
LINE
 8
Layer0
10
2.573875
20
-5.10825317547306
30
0.75
11
2.54372738063782
21
-5.12074072828613
31
0.75
  0
LINE
 8
Layer0
10
2.54372738063782
20
-5.12074072828613
30
0.75
11
2.511375
21
-5.125
31
0.75
  0
LINE
 8
Layer0
10
0.488625
20
-1.125
30
0.75
11
0.456272619362185
21
-1.12074072828613
31
0.75
  0
LINE
 8
Layer0
10
0.456272619362185
20
-1.12074072828613
30
0.75
11
0.426125
21
-1.10825317547305
31
0.75
  0
LINE
 8
Layer0
10
0.426125
20
-1.10825317547305
30
0.75
11
0.400236652351682
21
-1.08838834764832
31
0.75
  0
LINE
 8
Layer0
10
0.400236652351682
20
-1.08838834764832
30
0.75
11
0.380371824526945
21
-1.0625
31
0.75
  0
LINE
 8
Layer0
10
0.380371824526945
20
-1.0625
30
0.75
11
0.367884271713866
21
-1.03235238063782
31
0.75
  0
LINE
 8
Layer0
10
0.367884271713866
20
-1.03235238063782
30
0.75
11
0.363625
21
-1.0
31
0.75
  0
LINE
 8
Layer0
10
0.363625
20
-1.0
30
0.75
11
0.367884271713866
21
-0.967647619362185
31
0.75
  0
LINE
 8
Layer0
10
0.367884271713866
20
-0.967647619362185
30
0.75
11
0.380371824526945
21
-0.9375
31
0.75
  0
LINE
 8
Layer0
10
0.380371824526945
20
-0.9375
30
0.75
11
0.400236652351682
21
-0.911611652351682
31
0.75
  0
LINE
 8
Layer0
10
0.400236652351682
20
-0.911611652351682
30
0.75
11
0.426125
21
-0.891746824526945
31
0.75
  0
LINE
 8
Layer0
10
0.426125
20
-0.891746824526945
30
0.75
11
0.456272619362185
21
-0.879259271713867
31
0.75
  0
LINE
 8
Layer0
10
0.456272619362185
20
-0.879259271713867
30
0.75
11
0.488625
21
-0.875
31
0.75
  0
LINE
 8
Layer0
10
0.488625
20
-0.875
30
0.75
11
0.520977380637815
21
-0.879259271713866
31
0.75
  0
LINE
 8
Layer0
10
0.520977380637815
20
-0.879259271713866
30
0.75
11
0.551125
21
-0.891746824526945
31
0.75
  0
LINE
 8
Layer0
10
0.551125
20
-0.891746824526945
30
0.75
11
0.577013347648318
21
-0.911611652351682
31
0.75
  0
LINE
 8
Layer0
10
0.577013347648318
20
-0.911611652351682
30
0.75
11
0.596878175473055
21
-0.9375
31
0.75
  0
LINE
 8
Layer0
10
0.596878175473055
20
-0.9375
30
0.75
11
0.609365728286133
21
-0.967647619362185
31
0.75
  0
LINE
 8
Layer0
10
0.609365728286133
20
-0.967647619362185
30
0.75
11
0.613625
21
-1.0
31
0.75
  0
LINE
 8
Layer0
10
0.613625
20
-1.0
30
0.75
11
0.609365728286134
21
-1.03235238063781
31
0.75
  0
LINE
 8
Layer0
10
0.609365728286134
20
-1.03235238063781
30
0.75
11
0.596878175473055
21
-1.0625
31
0.75
  0
LINE
 8
Layer0
10
0.596878175473055
20
-1.0625
30
0.75
11
0.577013347648318
21
-1.08838834764832
31
0.75
  0
LINE
 8
Layer0
10
0.577013347648318
20
-1.08838834764832
30
0.75
11
0.551125
21
-1.10825317547305
31
0.75
  0
LINE
 8
Layer0
10
0.551125
20
-1.10825317547305
30
0.75
11
0.520977380637815
21
-1.12074072828613
31
0.75
  0
LINE
 8
Layer0
10
0.520977380637815
20
-1.12074072828613
30
0.75
11
0.488625
21
-1.125
31
0.75
  0
LINE
 8
Layer0
10
0.488625
20
-3.125
30
0.75
11
0.456272619362185
21
-3.12074072828613
31
0.75
  0
LINE
 8
Layer0
10
0.456272619362185
20
-3.12074072828613
30
0.75
11
0.426125
21
-3.10825317547305
31
0.75
  0
LINE
 8
Layer0
10
0.426125
20
-3.10825317547305
30
0.75
11
0.400236652351682
21
-3.08838834764832
31
0.75
  0
LINE
 8
Layer0
10
0.400236652351682
20
-3.08838834764832
30
0.75
11
0.380371824526945
21
-3.0625
31
0.75
  0
LINE
 8
Layer0
10
0.380371824526945
20
-3.0625
30
0.75
11
0.367884271713866
21
-3.03235238063781
31
0.75
  0
LINE
 8
Layer0
10
0.367884271713866
20
-3.03235238063781
30
0.75
11
0.363625
21
-3.0
31
0.75
  0
LINE
 8
Layer0
10
0.363625
20
-3.0
30
0.75
11
0.367884271713866
21
-2.96764761936219
31
0.75
  0
LINE
 8
Layer0
10
0.367884271713866
20
-2.96764761936219
30
0.75
11
0.380371824526945
21
-2.9375
31
0.75
  0
LINE
 8
Layer0
10
0.380371824526945
20
-2.9375
30
0.75
11
0.400236652351682
21
-2.91161165235168
31
0.75
  0
LINE
 8
Layer0
10
0.400236652351682
20
-2.91161165235168
30
0.75
11
0.426125
21
-2.89174682452695
31
0.75
  0
LINE
 8
Layer0
10
0.426125
20
-2.89174682452695
30
0.75
11
0.456272619362185
21
-2.87925927171387
31
0.75
  0
LINE
 8
Layer0
10
0.456272619362185
20
-2.87925927171387
30
0.75
11
0.488625
21
-2.875
31
0.75
  0
LINE
 8
Layer0
10
0.488625
20
-2.875
30
0.75
11
0.520977380637815
21
-2.87925927171387
31
0.75
  0
LINE
 8
Layer0
10
0.520977380637815
20
-2.87925927171387
30
0.75
11
0.551125
21
-2.89174682452695
31
0.75
  0
LINE
 8
Layer0
10
0.551125
20
-2.89174682452695
30
0.75
11
0.577013347648318
21
-2.91161165235168
31
0.75
  0
LINE
 8
Layer0
10
0.577013347648318
20
-2.91161165235168
30
0.75
11
0.596878175473055
21
-2.9375
31
0.75
  0
LINE
 8
Layer0
10
0.596878175473055
20
-2.9375
30
0.75
11
0.609365728286133
21
-2.96764761936219
31
0.75
  0
LINE
 8
Layer0
10
0.609365728286133
20
-2.96764761936219
30
0.75
11
0.613625
21
-3.0
31
0.75
  0
LINE
 8
Layer0
10
0.613625
20
-3.0
30
0.75
11
0.609365728286134
21
-3.03235238063781
31
0.75
  0
LINE
 8
Layer0
10
0.609365728286134
20
-3.03235238063781
30
0.75
11
0.596878175473055
21
-3.0625
31
0.75
  0
LINE
 8
Layer0
10
0.596878175473055
20
-3.0625
30
0.75
11
0.577013347648318
21
-3.08838834764832
31
0.75
  0
LINE
 8
Layer0
10
0.577013347648318
20
-3.08838834764832
30
0.75
11
0.551125
21
-3.10825317547305
31
0.75
  0
LINE
 8
Layer0
10
0.551125
20
-3.10825317547305
30
0.75
11
0.520977380637815
21
-3.12074072828613
31
0.75
  0
LINE
 8
Layer0
10
0.520977380637815
20
-3.12074072828613
30
0.75
11
0.488625
21
-3.125
31
0.75
  0
LINE
 8
Layer0
10
0.488625
20
-5.125
30
0.75
11
0.456272619362185
21
-5.12074072828613
31
0.75
  0
LINE
 8
Layer0
10
0.456272619362185
20
-5.12074072828613
30
0.75
11
0.426125
21
-5.10825317547306
31
0.75
  0
LINE
 8
Layer0
10
0.426125
20
-5.10825317547306
30
0.75
11
0.400236652351682
21
-5.08838834764832
31
0.75
  0
LINE
 8
Layer0
10
0.400236652351682
20
-5.08838834764832
30
0.75
11
0.380371824526945
21
-5.0625
31
0.75
  0
LINE
 8
Layer0
10
0.380371824526945
20
-5.0625
30
0.75
11
0.367884271713866
21
-5.03235238063781
31
0.75
  0
LINE
 8
Layer0
10
0.367884271713866
20
-5.03235238063781
30
0.75
11
0.363625
21
-5.0
31
0.75
  0
LINE
 8
Layer0
10
0.363625
20
-5.0
30
0.75
11
0.367884271713866
21
-4.96764761936219
31
0.75
  0
LINE
 8
Layer0
10
0.367884271713866
20
-4.96764761936219
30
0.75
11
0.380371824526945
21
-4.9375
31
0.75
  0
LINE
 8
Layer0
10
0.380371824526945
20
-4.9375
30
0.75
11
0.400236652351682
21
-4.91161165235168
31
0.75
  0
LINE
 8
Layer0
10
0.400236652351682
20
-4.91161165235168
30
0.75
11
0.426125
21
-4.89174682452694
31
0.75
  0
LINE
 8
Layer0
10
0.426125
20
-4.89174682452694
30
0.75
11
0.456272619362185
21
-4.87925927171387
31
0.75
  0
LINE
 8
Layer0
10
0.456272619362185
20
-4.87925927171387
30
0.75
11
0.488625
21
-4.875
31
0.75
  0
LINE
 8
Layer0
10
0.488625
20
-4.875
30
0.75
11
0.520977380637815
21
-4.87925927171387
31
0.75
  0
LINE
 8
Layer0
10
0.520977380637815
20
-4.87925927171387
30
0.75
11
0.551125
21
-4.89174682452694
31
0.75
  0
LINE
 8
Layer0
10
0.551125
20
-4.89174682452694
30
0.75
11
0.577013347648318
21
-4.91161165235168
31
0.75
  0
LINE
 8
Layer0
10
0.577013347648318
20
-4.91161165235168
30
0.75
11
0.596878175473055
21
-4.9375
31
0.75
  0
LINE
 8
Layer0
10
0.596878175473055
20
-4.9375
30
0.75
11
0.609365728286133
21
-4.96764761936219
31
0.75
  0
LINE
 8
Layer0
10
0.609365728286133
20
-4.96764761936219
30
0.75
11
0.613625
21
-5.0
31
0.75
  0
LINE
 8
Layer0
10
0.613625
20
-5.0
30
0.75
11
0.609365728286134
21
-5.03235238063781
31
0.75
  0
LINE
 8
Layer0
10
0.609365728286134
20
-5.03235238063781
30
0.75
11
0.596878175473055
21
-5.0625
31
0.75
  0
LINE
 8
Layer0
10
0.596878175473055
20
-5.0625
30
0.75
11
0.577013347648318
21
-5.08838834764832
31
0.75
  0
LINE
 8
Layer0
10
0.577013347648318
20
-5.08838834764832
30
0.75
11
0.551125
21
-5.10825317547306
31
0.75
  0
LINE
 8
Layer0
10
0.551125
20
-5.10825317547306
30
0.75
11
0.520977380637815
21
-5.12074072828613
31
0.75
  0
LINE
 8
Layer0
10
0.520977380637815
20
-5.12074072828613
30
0.75
11
0.488625
21
-5.125
31
0.75
  0
LINE
 8
Layer0
10
2.39063427171387
20
-0.967647619362185
30
0.75
11
2.40312182452695
21
-0.9375
31
0.75
  0
LINE
 8
Layer0
10
2.39063427171387
20
-1.03235238063782
30
0.75
11
2.386375
21
-1.0
31
0.75
  0
LINE
 8
Layer0
10
2.40312182452695
20
-1.0625
30
0.75
11
2.39063427171387
21
-1.03235238063782
31
0.75
  0
LINE
 8
Layer0
10
2.42298665235168
20
-1.08838834764832
30
0.75
11
2.40312182452695
21
-1.0625
31
0.75
  0
LINE
 8
Layer0
10
2.448875
20
-1.10825317547305
30
0.75
11
2.42298665235168
21
-1.08838834764832
31
0.75
  0
LINE
 8
Layer0
10
2.47902261936219
20
-1.12074072828613
30
0.75
11
2.448875
21
-1.10825317547305
31
0.75
  0
LINE
 8
Layer0
10
2.511375
20
-1.125
30
0.75
11
2.47902261936219
21
-1.12074072828613
31
0.75
  0
LINE
 8
Layer0
10
2.573875
20
-1.10825317547305
30
0.75
11
2.54372738063782
21
-1.12074072828613
31
0.75
  0
LINE
 8
Layer0
10
2.59976334764832
20
-1.08838834764832
30
0.75
11
2.573875
21
-1.10825317547305
31
0.75
  0
LINE
 8
Layer0
10
2.61962817547305
20
-1.0625
30
0.75
11
2.59976334764832
21
-1.08838834764832
31
0.75
  0
LINE
 8
Layer0
10
2.63211572828613
20
-1.03235238063781
30
0.75
11
2.61962817547305
21
-1.0625
31
0.75
  0
LINE
 8
Layer0
10
2.636375
20
-1.0
30
0.75
11
2.63211572828613
21
-1.03235238063781
31
0.75
  0
LINE
 8
Layer0
10
2.63211572828613
20
-0.967647619362185
30
0.75
11
2.636375
21
-1.0
31
0.75
  0
LINE
 8
Layer0
10
2.61962817547305
20
-0.9375
30
0.75
11
2.63211572828613
21
-0.967647619362185
31
0.75
  0
LINE
 8
Layer0
10
2.59976334764832
20
-0.911611652351682
30
0.75
11
2.61962817547305
21
-0.9375
31
0.75
  0
LINE
 8
Layer0
10
2.573875
20
-0.891746824526945
30
0.75
11
2.59976334764832
21
-0.911611652351682
31
0.75
  0
LINE
 8
Layer0
10
2.54372738063782
20
-0.879259271713866
30
0.75
11
2.573875
21
-0.891746824526945
31
0.75
  0
LINE
 8
Layer0
10
2.448875
20
-0.891746824526945
30
0.75
11
2.47902261936219
21
-0.879259271713867
31
0.75
  0
LINE
 8
Layer0
10
2.42298665235168
20
-0.911611652351682
30
0.75
11
2.448875
21
-0.891746824526945
31
0.75
  0
LINE
 8
Layer0
10
2.40312182452695
20
-0.9375
30
0.75
11
2.42298665235168
21
-0.911611652351682
31
0.75
  0
LINE
 8
Layer0
10
2.511375
20
-3.125
30
0.0
11
2.47902261936219
21
-3.12074072828613
31
0.0
  0
LINE
 8
Layer0
10
2.54372738063782
20
-3.12074072828613
30
0.0
11
2.511375
21
-3.125
31
0.0
  0
LINE
 8
Layer0
10
2.573875
20
-3.10825317547305
30
0.0
11
2.54372738063782
21
-3.12074072828613
31
0.0
  0
LINE
 8
Layer0
10
2.59976334764832
20
-3.08838834764832
30
0.0
11
2.573875
21
-3.10825317547305
31
0.0
  0
LINE
 8
Layer0
10
2.61962817547305
20
-3.0625
30
0.0
11
2.59976334764832
21
-3.08838834764832
31
0.0
  0
LINE
 8
Layer0
10
2.63211572828613
20
-3.03235238063781
30
0.0
11
2.61962817547305
21
-3.0625
31
0.0
  0
LINE
 8
Layer0
10
2.636375
20
-3.0
30
0.0
11
2.63211572828613
21
-3.03235238063781
31
0.0
  0
LINE
 8
Layer0
10
2.63211572828613
20
-2.96764761936219
30
0.0
11
2.636375
21
-3.0
31
0.0
  0
LINE
 8
Layer0
10
2.61962817547305
20
-2.9375
30
0.0
11
2.63211572828613
21
-2.96764761936219
31
0.0
  0
LINE
 8
Layer0
10
2.59976334764832
20
-2.91161165235168
30
0.0
11
2.61962817547305
21
-2.9375
31
0.0
  0
LINE
 8
Layer0
10
2.573875
20
-2.89174682452695
30
0.0
11
2.59976334764832
21
-2.91161165235168
31
0.0
  0
LINE
 8
Layer0
10
2.54372738063782
20
-2.87925927171387
30
0.0
11
2.573875
21
-2.89174682452695
31
0.0
  0
LINE
 8
Layer0
10
2.511375
20
-2.875
30
0.0
11
2.54372738063782
21
-2.87925927171387
31
0.0
  0
LINE
 8
Layer0
10
2.47902261936219
20
-2.87925927171387
30
0.0
11
2.511375
21
-2.875
31
0.0
  0
LINE
 8
Layer0
10
2.448875
20
-2.89174682452695
30
0.0
11
2.47902261936219
21
-2.87925927171387
31
0.0
  0
LINE
 8
Layer0
10
2.42298665235168
20
-2.91161165235168
30
0.0
11
2.448875
21
-2.89174682452695
31
0.0
  0
LINE
 8
Layer0
10
2.40312182452695
20
-2.9375
30
0.0
11
2.42298665235168
21
-2.91161165235168
31
0.0
  0
LINE
 8
Layer0
10
2.39063427171387
20
-2.96764761936219
30
0.0
11
2.40312182452695
21
-2.9375
31
0.0
  0
LINE
 8
Layer0
10
2.386375
20
-3.0
30
0.0
11
2.39063427171387
21
-2.96764761936219
31
0.0
  0
LINE
 8
Layer0
10
2.39063427171387
20
-3.03235238063781
30
0.0
11
2.386375
21
-3.0
31
0.0
  0
LINE
 8
Layer0
10
2.40312182452695
20
-3.0625
30
0.0
11
2.39063427171387
21
-3.03235238063781
31
0.0
  0
LINE
 8
Layer0
10
2.42298665235168
20
-3.08838834764832
30
0.0
11
2.40312182452695
21
-3.0625
31
0.0
  0
LINE
 8
Layer0
10
2.448875
20
-3.10825317547305
30
0.0
11
2.42298665235168
21
-3.08838834764832
31
0.0
  0
LINE
 8
Layer0
10
2.47902261936219
20
-3.12074072828613
30
0.0
11
2.448875
21
-3.10825317547305
31
0.0
  0
LINE
 8
Layer0
10
2.511375
20
-3.125
30
0.75
11
2.511375
21
-3.125
31
0.0
  0
LINE
 8
Layer0
10
2.47902261936219
20
-3.12074072828613
30
0.75
11
2.47902261936219
21
-3.12074072828613
31
0.0
  0
LINE
 8
Layer0
10
2.54372738063782
20
-3.12074072828613
30
0.75
11
2.54372738063782
21
-3.12074072828613
31
0.0
  0
LINE
 8
Layer0
10
2.573875
20
-3.10825317547305
30
0.75
11
2.573875
21
-3.10825317547305
31
0.0
  0
LINE
 8
Layer0
10
2.59976334764832
20
-3.08838834764832
30
0.75
11
2.59976334764832
21
-3.08838834764832
31
0.0
  0
LINE
 8
Layer0
10
2.61962817547305
20
-3.0625
30
0.75
11
2.61962817547305
21
-3.0625
31
0.0
  0
LINE
 8
Layer0
10
2.63211572828613
20
-3.03235238063781
30
0.75
11
2.63211572828613
21
-3.03235238063781
31
0.0
  0
LINE
 8
Layer0
10
2.636375
20
-3.0
30
0.75
11
2.636375
21
-3.0
31
0.0
  0
LINE
 8
Layer0
10
2.63211572828613
20
-2.96764761936219
30
0.75
11
2.63211572828613
21
-2.96764761936219
31
0.0
  0
LINE
 8
Layer0
10
2.61962817547305
20
-2.9375
30
0.75
11
2.61962817547305
21
-2.9375
31
0.0
  0
LINE
 8
Layer0
10
2.59976334764832
20
-2.91161165235168
30
0.75
11
2.59976334764832
21
-2.91161165235168
31
0.0
  0
LINE
 8
Layer0
10
2.573875
20
-2.89174682452695
30
0.75
11
2.573875
21
-2.89174682452695
31
0.0
  0
LINE
 8
Layer0
10
2.54372738063782
20
-2.87925927171387
30
0.75
11
2.54372738063782
21
-2.87925927171387
31
0.0
  0
LINE
 8
Layer0
10
2.511375
20
-2.875
30
0.75
11
2.511375
21
-2.875
31
0.0
  0
LINE
 8
Layer0
10
2.47902261936219
20
-2.87925927171387
30
0.75
11
2.47902261936219
21
-2.87925927171387
31
0.0
  0
LINE
 8
Layer0
10
2.448875
20
-2.89174682452695
30
0.75
11
2.448875
21
-2.89174682452695
31
0.0
  0
LINE
 8
Layer0
10
2.42298665235168
20
-2.91161165235168
30
0.75
11
2.42298665235168
21
-2.91161165235168
31
0.0
  0
LINE
 8
Layer0
10
2.40312182452695
20
-2.9375
30
0.75
11
2.40312182452695
21
-2.9375
31
0.0
  0
LINE
 8
Layer0
10
2.39063427171387
20
-2.96764761936219
30
0.75
11
2.39063427171387
21
-2.96764761936219
31
0.0
  0
LINE
 8
Layer0
10
2.386375
20
-3.0
30
0.75
11
2.386375
21
-3.0
31
0.0
  0
LINE
 8
Layer0
10
2.39063427171387
20
-3.03235238063781
30
0.75
11
2.39063427171387
21
-3.03235238063781
31
0.0
  0
LINE
 8
Layer0
10
2.40312182452695
20
-3.0625
30
0.75
11
2.40312182452695
21
-3.0625
31
0.0
  0
LINE
 8
Layer0
10
2.42298665235168
20
-3.08838834764832
30
0.75
11
2.42298665235168
21
-3.08838834764832
31
0.0
  0
LINE
 8
Layer0
10
2.448875
20
-3.10825317547305
30
0.75
11
2.448875
21
-3.10825317547305
31
0.0
  0
LINE
 8
Layer0
10
2.573875
20
-4.89174682452694
30
0.0
11
2.59976334764832
21
-4.91161165235168
31
0.0
  0
LINE
 8
Layer0
10
2.54372738063782
20
-4.87925927171387
30
0.0
11
2.573875
21
-4.89174682452694
31
0.0
  0
LINE
 8
Layer0
10
2.511375
20
-4.875
30
0.0
11
2.54372738063782
21
-4.87925927171387
31
0.0
  0
LINE
 8
Layer0
10
2.47902261936219
20
-4.87925927171387
30
0.0
11
2.511375
21
-4.875
31
0.0
  0
LINE
 8
Layer0
10
2.448875
20
-4.89174682452694
30
0.0
11
2.47902261936219
21
-4.87925927171387
31
0.0
  0
LINE
 8
Layer0
10
2.42298665235168
20
-4.91161165235168
30
0.0
11
2.448875
21
-4.89174682452694
31
0.0
  0
LINE
 8
Layer0
10
2.40312182452695
20
-4.9375
30
0.0
11
2.42298665235168
21
-4.91161165235168
31
0.0
  0
LINE
 8
Layer0
10
2.39063427171387
20
-4.96764761936219
30
0.0
11
2.40312182452695
21
-4.9375
31
0.0
  0
LINE
 8
Layer0
10
2.386375
20
-5.0
30
0.0
11
2.39063427171387
21
-4.96764761936219
31
0.0
  0
LINE
 8
Layer0
10
2.39063427171387
20
-5.03235238063781
30
0.0
11
2.386375
21
-5.0
31
0.0
  0
LINE
 8
Layer0
10
2.40312182452695
20
-5.0625
30
0.0
11
2.39063427171387
21
-5.03235238063781
31
0.0
  0
LINE
 8
Layer0
10
2.42298665235168
20
-5.08838834764832
30
0.0
11
2.40312182452695
21
-5.0625
31
0.0
  0
LINE
 8
Layer0
10
2.448875
20
-5.10825317547306
30
0.0
11
2.42298665235168
21
-5.08838834764832
31
0.0
  0
LINE
 8
Layer0
10
2.47902261936219
20
-5.12074072828613
30
0.0
11
2.448875
21
-5.10825317547306
31
0.0
  0
LINE
 8
Layer0
10
2.511375
20
-5.125
30
0.0
11
2.47902261936219
21
-5.12074072828613
31
0.0
  0
LINE
 8
Layer0
10
2.54372738063782
20
-5.12074072828613
30
0.0
11
2.511375
21
-5.125
31
0.0
  0
LINE
 8
Layer0
10
2.573875
20
-5.10825317547306
30
0.0
11
2.54372738063782
21
-5.12074072828613
31
0.0
  0
LINE
 8
Layer0
10
2.59976334764832
20
-5.08838834764832
30
0.0
11
2.573875
21
-5.10825317547306
31
0.0
  0
LINE
 8
Layer0
10
2.61962817547305
20
-5.0625
30
0.0
11
2.59976334764832
21
-5.08838834764832
31
0.0
  0
LINE
 8
Layer0
10
2.63211572828613
20
-5.03235238063781
30
0.0
11
2.61962817547305
21
-5.0625
31
0.0
  0
LINE
 8
Layer0
10
2.636375
20
-5.0
30
0.0
11
2.63211572828613
21
-5.03235238063781
31
0.0
  0
LINE
 8
Layer0
10
2.63211572828613
20
-4.96764761936219
30
0.0
11
2.636375
21
-5.0
31
0.0
  0
LINE
 8
Layer0
10
2.61962817547305
20
-4.9375
30
0.0
11
2.63211572828613
21
-4.96764761936219
31
0.0
  0
LINE
 8
Layer0
10
2.59976334764832
20
-4.91161165235168
30
0.0
11
2.61962817547305
21
-4.9375
31
0.0
  0
LINE
 8
Layer0
10
2.573875
20
-4.89174682452694
30
0.75
11
2.573875
21
-4.89174682452694
31
0.0
  0
LINE
 8
Layer0
10
2.59976334764832
20
-4.91161165235168
30
0.75
11
2.59976334764832
21
-4.91161165235168
31
0.0
  0
LINE
 8
Layer0
10
2.54372738063782
20
-4.87925927171387
30
0.75
11
2.54372738063782
21
-4.87925927171387
31
0.0
  0
LINE
 8
Layer0
10
2.511375
20
-4.875
30
0.75
11
2.511375
21
-4.875
31
0.0
  0
LINE
 8
Layer0
10
2.47902261936219
20
-4.87925927171387
30
0.75
11
2.47902261936219
21
-4.87925927171387
31
0.0
  0
LINE
 8
Layer0
10
2.448875
20
-4.89174682452694
30
0.75
11
2.448875
21
-4.89174682452694
31
0.0
  0
LINE
 8
Layer0
10
2.42298665235168
20
-4.91161165235168
30
0.75
11
2.42298665235168
21
-4.91161165235168
31
0.0
  0
LINE
 8
Layer0
10
2.40312182452695
20
-4.9375
30
0.75
11
2.40312182452695
21
-4.9375
31
0.0
  0
LINE
 8
Layer0
10
2.39063427171387
20
-4.96764761936219
30
0.75
11
2.39063427171387
21
-4.96764761936219
31
0.0
  0
LINE
 8
Layer0
10
2.386375
20
-5.0
30
0.75
11
2.386375
21
-5.0
31
0.0
  0
LINE
 8
Layer0
10
2.39063427171387
20
-5.03235238063781
30
0.75
11
2.39063427171387
21
-5.03235238063781
31
0.0
  0
LINE
 8
Layer0
10
2.40312182452695
20
-5.0625
30
0.75
11
2.40312182452695
21
-5.0625
31
0.0
  0
LINE
 8
Layer0
10
2.42298665235168
20
-5.08838834764832
30
0.75
11
2.42298665235168
21
-5.08838834764832
31
0.0
  0
LINE
 8
Layer0
10
2.448875
20
-5.10825317547306
30
0.75
11
2.448875
21
-5.10825317547306
31
0.0
  0
LINE
 8
Layer0
10
2.47902261936219
20
-5.12074072828613
30
0.75
11
2.47902261936219
21
-5.12074072828613
31
0.0
  0
LINE
 8
Layer0
10
2.511375
20
-5.125
30
0.75
11
2.511375
21
-5.125
31
0.0
  0
LINE
 8
Layer0
10
2.54372738063782
20
-5.12074072828613
30
0.75
11
2.54372738063782
21
-5.12074072828613
31
0.0
  0
LINE
 8
Layer0
10
2.573875
20
-5.10825317547306
30
0.75
11
2.573875
21
-5.10825317547306
31
0.0
  0
LINE
 8
Layer0
10
2.59976334764832
20
-5.08838834764832
30
0.75
11
2.59976334764832
21
-5.08838834764832
31
0.0
  0
LINE
 8
Layer0
10
2.61962817547305
20
-5.0625
30
0.75
11
2.61962817547305
21
-5.0625
31
0.0
  0
LINE
 8
Layer0
10
2.63211572828613
20
-5.03235238063781
30
0.75
11
2.63211572828613
21
-5.03235238063781
31
0.0
  0
LINE
 8
Layer0
10
2.636375
20
-5.0
30
0.75
11
2.636375
21
-5.0
31
0.0
  0
LINE
 8
Layer0
10
2.63211572828613
20
-4.96764761936219
30
0.75
11
2.63211572828613
21
-4.96764761936219
31
0.0
  0
LINE
 8
Layer0
10
2.61962817547305
20
-4.9375
30
0.75
11
2.61962817547305
21
-4.9375
31
0.0
  0
LINE
 8
Layer0
10
0.380371824526945
20
-4.9375
30
0.0
11
0.400236652351682
21
-4.91161165235168
31
0.0
  0
LINE
 8
Layer0
10
0.367884271713866
20
-4.96764761936219
30
0.0
11
0.380371824526945
21
-4.9375
31
0.0
  0
LINE
 8
Layer0
10
0.363625
20
-5.0
30
0.0
11
0.367884271713866
21
-4.96764761936219
31
0.0
  0
LINE
 8
Layer0
10
0.367884271713866
20
-5.03235238063781
30
0.0
11
0.363625
21
-5.0
31
0.0
  0
LINE
 8
Layer0
10
0.380371824526945
20
-5.0625
30
0.0
11
0.367884271713866
21
-5.03235238063781
31
0.0
  0
LINE
 8
Layer0
10
0.400236652351682
20
-5.08838834764832
30
0.0
11
0.380371824526945
21
-5.0625
31
0.0
  0
LINE
 8
Layer0
10
0.426125
20
-5.10825317547306
30
0.0
11
0.400236652351682
21
-5.08838834764832
31
0.0
  0
LINE
 8
Layer0
10
0.456272619362185
20
-5.12074072828613
30
0.0
11
0.426125
21
-5.10825317547306
31
0.0
  0
LINE
 8
Layer0
10
0.488625
20
-5.125
30
0.0
11
0.456272619362185
21
-5.12074072828613
31
0.0
  0
LINE
 8
Layer0
10
0.520977380637815
20
-5.12074072828613
30
0.0
11
0.488625
21
-5.125
31
0.0
  0
LINE
 8
Layer0
10
0.551125
20
-5.10825317547306
30
0.0
11
0.520977380637815
21
-5.12074072828613
31
0.0
  0
LINE
 8
Layer0
10
0.577013347648318
20
-5.08838834764832
30
0.0
11
0.551125
21
-5.10825317547306
31
0.0
  0
LINE
 8
Layer0
10
0.596878175473055
20
-5.0625
30
0.0
11
0.577013347648318
21
-5.08838834764832
31
0.0
  0
LINE
 8
Layer0
10
0.609365728286134
20
-5.03235238063781
30
0.0
11
0.596878175473055
21
-5.0625
31
0.0
  0
LINE
 8
Layer0
10
0.613625
20
-5.0
30
0.0
11
0.609365728286134
21
-5.03235238063781
31
0.0
  0
LINE
 8
Layer0
10
0.609365728286133
20
-4.96764761936219
30
0.0
11
0.613625
21
-5.0
31
0.0
  0
LINE
 8
Layer0
10
0.596878175473055
20
-4.9375
30
0.0
11
0.609365728286133
21
-4.96764761936219
31
0.0
  0
LINE
 8
Layer0
10
0.577013347648318
20
-4.91161165235168
30
0.0
11
0.596878175473055
21
-4.9375
31
0.0
  0
LINE
 8
Layer0
10
0.551125
20
-4.89174682452694
30
0.0
11
0.577013347648318
21
-4.91161165235168
31
0.0
  0
LINE
 8
Layer0
10
0.520977380637815
20
-4.87925927171387
30
0.0
11
0.551125
21
-4.89174682452694
31
0.0
  0
LINE
 8
Layer0
10
0.488625
20
-4.875
30
0.0
11
0.520977380637815
21
-4.87925927171387
31
0.0
  0
LINE
 8
Layer0
10
0.456272619362185
20
-4.87925927171387
30
0.0
11
0.488625
21
-4.875
31
0.0
  0
LINE
 8
Layer0
10
0.426125
20
-4.89174682452694
30
0.0
11
0.456272619362185
21
-4.87925927171387
31
0.0
  0
LINE
 8
Layer0
10
0.400236652351682
20
-4.91161165235168
30
0.0
11
0.426125
21
-4.89174682452694
31
0.0
  0
LINE
 8
Layer0
10
0.380371824526945
20
-4.9375
30
0.75
11
0.380371824526945
21
-4.9375
31
0.0
  0
LINE
 8
Layer0
10
0.400236652351682
20
-4.91161165235168
30
0.75
11
0.400236652351682
21
-4.91161165235168
31
0.0
  0
LINE
 8
Layer0
10
0.367884271713866
20
-4.96764761936219
30
0.75
11
0.367884271713866
21
-4.96764761936219
31
0.0
  0
LINE
 8
Layer0
10
0.363625
20
-5.0
30
0.75
11
0.363625
21
-5.0
31
0.0
  0
LINE
 8
Layer0
10
0.367884271713866
20
-5.03235238063781
30
0.75
11
0.367884271713866
21
-5.03235238063781
31
0.0
  0
LINE
 8
Layer0
10
0.380371824526945
20
-5.0625
30
0.75
11
0.380371824526945
21
-5.0625
31
0.0
  0
LINE
 8
Layer0
10
0.400236652351682
20
-5.08838834764832
30
0.75
11
0.400236652351682
21
-5.08838834764832
31
0.0
  0
LINE
 8
Layer0
10
0.426125
20
-5.10825317547306
30
0.75
11
0.426125
21
-5.10825317547306
31
0.0
  0
LINE
 8
Layer0
10
0.456272619362185
20
-5.12074072828613
30
0.75
11
0.456272619362185
21
-5.12074072828613
31
0.0
  0
LINE
 8
Layer0
10
0.488625
20
-5.125
30
0.75
11
0.488625
21
-5.125
31
0.0
  0
LINE
 8
Layer0
10
0.520977380637815
20
-5.12074072828613
30
0.75
11
0.520977380637815
21
-5.12074072828613
31
0.0
  0
LINE
 8
Layer0
10
0.551125
20
-5.10825317547306
30
0.75
11
0.551125
21
-5.10825317547306
31
0.0
  0
LINE
 8
Layer0
10
0.577013347648318
20
-5.08838834764832
30
0.75
11
0.577013347648318
21
-5.08838834764832
31
0.0
  0
LINE
 8
Layer0
10
0.596878175473055
20
-5.0625
30
0.75
11
0.596878175473055
21
-5.0625
31
0.0
  0
LINE
 8
Layer0
10
0.609365728286134
20
-5.03235238063781
30
0.75
11
0.609365728286134
21
-5.03235238063781
31
0.0
  0
LINE
 8
Layer0
10
0.613625
20
-5.0
30
0.75
11
0.613625
21
-5.0
31
0.0
  0
LINE
 8
Layer0
10
0.609365728286133
20
-4.96764761936219
30
0.75
11
0.609365728286133
21
-4.96764761936219
31
0.0
  0
LINE
 8
Layer0
10
0.596878175473055
20
-4.9375
30
0.75
11
0.596878175473055
21
-4.9375
31
0.0
  0
LINE
 8
Layer0
10
0.577013347648318
20
-4.91161165235168
30
0.75
11
0.577013347648318
21
-4.91161165235168
31
0.0
  0
LINE
 8
Layer0
10
0.551125
20
-4.89174682452694
30
0.75
11
0.551125
21
-4.89174682452694
31
0.0
  0
LINE
 8
Layer0
10
0.520977380637815
20
-4.87925927171387
30
0.75
11
0.520977380637815
21
-4.87925927171387
31
0.0
  0
LINE
 8
Layer0
10
0.488625
20
-4.875
30
0.75
11
0.488625
21
-4.875
31
0.0
  0
LINE
 8
Layer0
10
0.456272619362185
20
-4.87925927171387
30
0.75
11
0.456272619362185
21
-4.87925927171387
31
0.0
  0
LINE
 8
Layer0
10
0.426125
20
-4.89174682452694
30
0.75
11
0.426125
21
-4.89174682452694
31
0.0
  0
LINE
 8
Layer0
10
0.456272619362185
20
-3.12074072828613
30
0.0
11
0.426125
21
-3.10825317547305
31
0.0
  0
LINE
 8
Layer0
10
0.488625
20
-3.125
30
0.0
11
0.456272619362185
21
-3.12074072828613
31
0.0
  0
LINE
 8
Layer0
10
0.520977380637815
20
-3.12074072828613
30
0.0
11
0.488625
21
-3.125
31
0.0
  0
LINE
 8
Layer0
10
0.551125
20
-3.10825317547305
30
0.0
11
0.520977380637815
21
-3.12074072828613
31
0.0
  0
LINE
 8
Layer0
10
0.577013347648318
20
-3.08838834764832
30
0.0
11
0.551125
21
-3.10825317547305
31
0.0
  0
LINE
 8
Layer0
10
0.596878175473055
20
-3.0625
30
0.0
11
0.577013347648318
21
-3.08838834764832
31
0.0
  0
LINE
 8
Layer0
10
0.609365728286134
20
-3.03235238063781
30
0.0
11
0.596878175473055
21
-3.0625
31
0.0
  0
LINE
 8
Layer0
10
0.613625
20
-3.0
30
0.0
11
0.609365728286134
21
-3.03235238063781
31
0.0
  0
LINE
 8
Layer0
10
0.609365728286133
20
-2.96764761936219
30
0.0
11
0.613625
21
-3.0
31
0.0
  0
LINE
 8
Layer0
10
0.596878175473055
20
-2.9375
30
0.0
11
0.609365728286133
21
-2.96764761936219
31
0.0
  0
LINE
 8
Layer0
10
0.577013347648318
20
-2.91161165235168
30
0.0
11
0.596878175473055
21
-2.9375
31
0.0
  0
LINE
 8
Layer0
10
0.551125
20
-2.89174682452695
30
0.0
11
0.577013347648318
21
-2.91161165235168
31
0.0
  0
LINE
 8
Layer0
10
0.520977380637815
20
-2.87925927171387
30
0.0
11
0.551125
21
-2.89174682452695
31
0.0
  0
LINE
 8
Layer0
10
0.488625
20
-2.875
30
0.0
11
0.520977380637815
21
-2.87925927171387
31
0.0
  0
LINE
 8
Layer0
10
0.456272619362185
20
-2.87925927171387
30
0.0
11
0.488625
21
-2.875
31
0.0
  0
LINE
 8
Layer0
10
0.426125
20
-2.89174682452695
30
0.0
11
0.456272619362185
21
-2.87925927171387
31
0.0
  0
LINE
 8
Layer0
10
0.400236652351682
20
-2.91161165235168
30
0.0
11
0.426125
21
-2.89174682452695
31
0.0
  0
LINE
 8
Layer0
10
0.380371824526945
20
-2.9375
30
0.0
11
0.400236652351682
21
-2.91161165235168
31
0.0
  0
LINE
 8
Layer0
10
0.367884271713866
20
-2.96764761936219
30
0.0
11
0.380371824526945
21
-2.9375
31
0.0
  0
LINE
 8
Layer0
10
0.363625
20
-3.0
30
0.0
11
0.367884271713866
21
-2.96764761936219
31
0.0
  0
LINE
 8
Layer0
10
0.367884271713866
20
-3.03235238063781
30
0.0
11
0.363625
21
-3.0
31
0.0
  0
LINE
 8
Layer0
10
0.380371824526945
20
-3.0625
30
0.0
11
0.367884271713866
21
-3.03235238063781
31
0.0
  0
LINE
 8
Layer0
10
0.400236652351682
20
-3.08838834764832
30
0.0
11
0.380371824526945
21
-3.0625
31
0.0
  0
LINE
 8
Layer0
10
0.426125
20
-3.10825317547305
30
0.0
11
0.400236652351682
21
-3.08838834764832
31
0.0
  0
LINE
 8
Layer0
10
0.456272619362185
20
-3.12074072828613
30
0.75
11
0.456272619362185
21
-3.12074072828613
31
0.0
  0
LINE
 8
Layer0
10
0.426125
20
-3.10825317547305
30
0.75
11
0.426125
21
-3.10825317547305
31
0.0
  0
LINE
 8
Layer0
10
0.488625
20
-3.125
30
0.75
11
0.488625
21
-3.125
31
0.0
  0
LINE
 8
Layer0
10
0.520977380637815
20
-3.12074072828613
30
0.75
11
0.520977380637815
21
-3.12074072828613
31
0.0
  0
LINE
 8
Layer0
10
0.551125
20
-3.10825317547305
30
0.75
11
0.551125
21
-3.10825317547305
31
0.0
  0
LINE
 8
Layer0
10
0.577013347648318
20
-3.08838834764832
30
0.75
11
0.577013347648318
21
-3.08838834764832
31
0.0
  0
LINE
 8
Layer0
10
0.596878175473055
20
-3.0625
30
0.75
11
0.596878175473055
21
-3.0625
31
0.0
  0
LINE
 8
Layer0
10
0.609365728286134
20
-3.03235238063781
30
0.75
11
0.609365728286134
21
-3.03235238063781
31
0.0
  0
LINE
 8
Layer0
10
0.613625
20
-3.0
30
0.75
11
0.613625
21
-3.0
31
0.0
  0
LINE
 8
Layer0
10
0.609365728286133
20
-2.96764761936219
30
0.75
11
0.609365728286133
21
-2.96764761936219
31
0.0
  0
LINE
 8
Layer0
10
0.596878175473055
20
-2.9375
30
0.75
11
0.596878175473055
21
-2.9375
31
0.0
  0
LINE
 8
Layer0
10
0.577013347648318
20
-2.91161165235168
30
0.75
11
0.577013347648318
21
-2.91161165235168
31
0.0
  0
LINE
 8
Layer0
10
0.551125
20
-2.89174682452695
30
0.75
11
0.551125
21
-2.89174682452695
31
0.0
  0
LINE
 8
Layer0
10
0.520977380637815
20
-2.87925927171387
30
0.75
11
0.520977380637815
21
-2.87925927171387
31
0.0
  0
LINE
 8
Layer0
10
0.488625
20
-2.875
30
0.75
11
0.488625
21
-2.875
31
0.0
  0
LINE
 8
Layer0
10
0.456272619362185
20
-2.87925927171387
30
0.75
11
0.456272619362185
21
-2.87925927171387
31
0.0
  0
LINE
 8
Layer0
10
0.426125
20
-2.89174682452695
30
0.75
11
0.426125
21
-2.89174682452695
31
0.0
  0
LINE
 8
Layer0
10
0.400236652351682
20
-2.91161165235168
30
0.75
11
0.400236652351682
21
-2.91161165235168
31
0.0
  0
LINE
 8
Layer0
10
0.380371824526945
20
-2.9375
30
0.75
11
0.380371824526945
21
-2.9375
31
0.0
  0
LINE
 8
Layer0
10
0.367884271713866
20
-2.96764761936219
30
0.75
11
0.367884271713866
21
-2.96764761936219
31
0.0
  0
LINE
 8
Layer0
10
0.363625
20
-3.0
30
0.75
11
0.363625
21
-3.0
31
0.0
  0
LINE
 8
Layer0
10
0.367884271713866
20
-3.03235238063781
30
0.75
11
0.367884271713866
21
-3.03235238063781
31
0.0
  0
LINE
 8
Layer0
10
0.380371824526945
20
-3.0625
30
0.75
11
0.380371824526945
21
-3.0625
31
0.0
  0
LINE
 8
Layer0
10
0.400236652351682
20
-3.08838834764832
30
0.75
11
0.400236652351682
21
-3.08838834764832
31
0.0
  0
LINE
 8
Layer0
10
0.426125
20
-0.891746824526945
30
0.0
11
0.456272619362185
21
-0.879259271713867
31
0.0
  0
LINE
 8
Layer0
10
0.400236652351682
20
-0.911611652351682
30
0.0
11
0.426125
21
-0.891746824526945
31
0.0
  0
LINE
 8
Layer0
10
0.380371824526945
20
-0.9375
30
0.0
11
0.400236652351682
21
-0.911611652351682
31
0.0
  0
LINE
 8
Layer0
10
0.367884271713866
20
-0.967647619362185
30
0.0
11
0.380371824526945
21
-0.9375
31
0.0
  0
LINE
 8
Layer0
10
0.363625
20
-1.0
30
0.0
11
0.367884271713866
21
-0.967647619362185
31
0.0
  0
LINE
 8
Layer0
10
0.367884271713866
20
-1.03235238063782
30
0.0
11
0.363625
21
-1.0
31
0.0
  0
LINE
 8
Layer0
10
0.380371824526945
20
-1.0625
30
0.0
11
0.367884271713866
21
-1.03235238063782
31
0.0
  0
LINE
 8
Layer0
10
0.400236652351682
20
-1.08838834764832
30
0.0
11
0.380371824526945
21
-1.0625
31
0.0
  0
LINE
 8
Layer0
10
0.426125
20
-1.10825317547305
30
0.0
11
0.400236652351682
21
-1.08838834764832
31
0.0
  0
LINE
 8
Layer0
10
0.456272619362185
20
-1.12074072828613
30
0.0
11
0.426125
21
-1.10825317547305
31
0.0
  0
LINE
 8
Layer0
10
0.488625
20
-1.125
30
0.0
11
0.456272619362185
21
-1.12074072828613
31
0.0
  0
LINE
 8
Layer0
10
0.520977380637815
20
-1.12074072828613
30
0.0
11
0.488625
21
-1.125
31
0.0
  0
LINE
 8
Layer0
10
0.551125
20
-1.10825317547305
30
0.0
11
0.520977380637815
21
-1.12074072828613
31
0.0
  0
LINE
 8
Layer0
10
0.577013347648318
20
-1.08838834764832
30
0.0
11
0.551125
21
-1.10825317547305
31
0.0
  0
LINE
 8
Layer0
10
0.596878175473055
20
-1.0625
30
0.0
11
0.577013347648318
21
-1.08838834764832
31
0.0
  0
LINE
 8
Layer0
10
0.609365728286134
20
-1.03235238063781
30
0.0
11
0.596878175473055
21
-1.0625
31
0.0
  0
LINE
 8
Layer0
10
0.613625
20
-1.0
30
0.0
11
0.609365728286134
21
-1.03235238063781
31
0.0
  0
LINE
 8
Layer0
10
0.609365728286133
20
-0.967647619362185
30
0.0
11
0.613625
21
-1.0
31
0.0
  0
LINE
 8
Layer0
10
0.596878175473055
20
-0.9375
30
0.0
11
0.609365728286133
21
-0.967647619362185
31
0.0
  0
LINE
 8
Layer0
10
0.577013347648318
20
-0.911611652351682
30
0.0
11
0.596878175473055
21
-0.9375
31
0.0
  0
LINE
 8
Layer0
10
0.551125
20
-0.891746824526945
30
0.0
11
0.577013347648318
21
-0.911611652351682
31
0.0
  0
LINE
 8
Layer0
10
0.520977380637815
20
-0.879259271713866
30
0.0
11
0.551125
21
-0.891746824526945
31
0.0
  0
LINE
 8
Layer0
10
0.488625
20
-0.875
30
0.0
11
0.520977380637815
21
-0.879259271713866
31
0.0
  0
LINE
 8
Layer0
10
0.456272619362185
20
-0.879259271713867
30
0.0
11
0.488625
21
-0.875
31
0.0
  0
LINE
 8
Layer0
10
0.426125
20
-0.891746824526945
30
0.75
11
0.426125
21
-0.891746824526945
31
0.0
  0
LINE
 8
Layer0
10
0.456272619362185
20
-0.879259271713867
30
0.75
11
0.456272619362185
21
-0.879259271713867
31
0.0
  0
LINE
 8
Layer0
10
0.400236652351682
20
-0.911611652351682
30
0.75
11
0.400236652351682
21
-0.911611652351682
31
0.0
  0
LINE
 8
Layer0
10
0.380371824526945
20
-0.9375
30
0.75
11
0.380371824526945
21
-0.9375
31
0.0
  0
LINE
 8
Layer0
10
0.367884271713866
20
-0.967647619362185
30
0.75
11
0.367884271713866
21
-0.967647619362185
31
0.0
  0
LINE
 8
Layer0
10
0.363625
20
-1.0
30
0.75
11
0.363625
21
-1.0
31
0.0
  0
LINE
 8
Layer0
10
0.367884271713866
20
-1.03235238063782
30
0.75
11
0.367884271713866
21
-1.03235238063782
31
0.0
  0
LINE
 8
Layer0
10
0.380371824526945
20
-1.0625
30
0.75
11
0.380371824526945
21
-1.0625
31
0.0
  0
LINE
 8
Layer0
10
0.400236652351682
20
-1.08838834764832
30
0.75
11
0.400236652351682
21
-1.08838834764832
31
0.0
  0
LINE
 8
Layer0
10
0.426125
20
-1.10825317547305
30
0.75
11
0.426125
21
-1.10825317547305
31
0.0
  0
LINE
 8
Layer0
10
0.456272619362185
20
-1.12074072828613
30
0.75
11
0.456272619362185
21
-1.12074072828613
31
0.0
  0
LINE
 8
Layer0
10
0.488625
20
-1.125
30
0.75
11
0.488625
21
-1.125
31
0.0
  0
LINE
 8
Layer0
10
0.520977380637815
20
-1.12074072828613
30
0.75
11
0.520977380637815
21
-1.12074072828613
31
0.0
  0
LINE
 8
Layer0
10
0.551125
20
-1.10825317547305
30
0.75
11
0.551125
21
-1.10825317547305
31
0.0
  0
LINE
 8
Layer0
10
0.577013347648318
20
-1.08838834764832
30
0.75
11
0.577013347648318
21
-1.08838834764832
31
0.0
  0
LINE
 8
Layer0
10
0.596878175473055
20
-1.0625
30
0.75
11
0.596878175473055
21
-1.0625
31
0.0
  0
LINE
 8
Layer0
10
0.609365728286134
20
-1.03235238063781
30
0.75
11
0.609365728286134
21
-1.03235238063781
31
0.0
  0
LINE
 8
Layer0
10
0.613625
20
-1.0
30
0.75
11
0.613625
21
-1.0
31
0.0
  0
LINE
 8
Layer0
10
0.609365728286133
20
-0.967647619362185
30
0.75
11
0.609365728286133
21
-0.967647619362185
31
0.0
  0
LINE
 8
Layer0
10
0.596878175473055
20
-0.9375
30
0.75
11
0.596878175473055
21
-0.9375
31
0.0
  0
LINE
 8
Layer0
10
0.577013347648318
20
-0.911611652351682
30
0.75
11
0.577013347648318
21
-0.911611652351682
31
0.0
  0
LINE
 8
Layer0
10
0.551125
20
-0.891746824526945
30
0.75
11
0.551125
21
-0.891746824526945
31
0.0
  0
LINE
 8
Layer0
10
0.520977380637815
20
-0.879259271713866
30
0.75
11
0.520977380637815
21
-0.879259271713866
31
0.0
  0
LINE
 8
Layer0
10
0.488625
20
-0.875
30
0.75
11
0.488625
21
-0.875
31
0.0
  0
LINE
 8
Layer0
10
2.39063427171387
20
-0.967647619362185
30
0.0
11
2.40312182452695
21
-0.9375
31
0.0
  0
LINE
 8
Layer0
10
2.386375
20
-1.0
30
0.0
11
2.39063427171387
21
-0.967647619362185
31
0.0
  0
LINE
 8
Layer0
10
2.39063427171387
20
-1.03235238063782
30
0.0
11
2.386375
21
-1.0
31
0.0
  0
LINE
 8
Layer0
10
2.40312182452695
20
-1.0625
30
0.0
11
2.39063427171387
21
-1.03235238063782
31
0.0
  0
LINE
 8
Layer0
10
2.42298665235168
20
-1.08838834764832
30
0.0
11
2.40312182452695
21
-1.0625
31
0.0
  0
LINE
 8
Layer0
10
2.448875
20
-1.10825317547305
30
0.0
11
2.42298665235168
21
-1.08838834764832
31
0.0
  0
LINE
 8
Layer0
10
2.47902261936219
20
-1.12074072828613
30
0.0
11
2.448875
21
-1.10825317547305
31
0.0
  0
LINE
 8
Layer0
10
2.511375
20
-1.125
30
0.0
11
2.47902261936219
21
-1.12074072828613
31
0.0
  0
LINE
 8
Layer0
10
2.54372738063782
20
-1.12074072828613
30
0.0
11
2.511375
21
-1.125
31
0.0
  0
LINE
 8
Layer0
10
2.573875
20
-1.10825317547305
30
0.0
11
2.54372738063782
21
-1.12074072828613
31
0.0
  0
LINE
 8
Layer0
10
2.59976334764832
20
-1.08838834764832
30
0.0
11
2.573875
21
-1.10825317547305
31
0.0
  0
LINE
 8
Layer0
10
2.61962817547305
20
-1.0625
30
0.0
11
2.59976334764832
21
-1.08838834764832
31
0.0
  0
LINE
 8
Layer0
10
2.63211572828613
20
-1.03235238063781
30
0.0
11
2.61962817547305
21
-1.0625
31
0.0
  0
LINE
 8
Layer0
10
2.636375
20
-1.0
30
0.0
11
2.63211572828613
21
-1.03235238063781
31
0.0
  0
LINE
 8
Layer0
10
2.63211572828613
20
-0.967647619362185
30
0.0
11
2.636375
21
-1.0
31
0.0
  0
LINE
 8
Layer0
10
2.61962817547305
20
-0.9375
30
0.0
11
2.63211572828613
21
-0.967647619362185
31
0.0
  0
LINE
 8
Layer0
10
2.59976334764832
20
-0.911611652351682
30
0.0
11
2.61962817547305
21
-0.9375
31
0.0
  0
LINE
 8
Layer0
10
2.573875
20
-0.891746824526945
30
0.0
11
2.59976334764832
21
-0.911611652351682
31
0.0
  0
LINE
 8
Layer0
10
2.54372738063782
20
-0.879259271713866
30
0.0
11
2.573875
21
-0.891746824526945
31
0.0
  0
LINE
 8
Layer0
10
2.511375
20
-0.875
30
0.0
11
2.54372738063782
21
-0.879259271713866
31
0.0
  0
LINE
 8
Layer0
10
2.47902261936219
20
-0.879259271713867
30
0.0
11
2.511375
21
-0.875
31
0.0
  0
LINE
 8
Layer0
10
2.448875
20
-0.891746824526945
30
0.0
11
2.47902261936219
21
-0.879259271713867
31
0.0
  0
LINE
 8
Layer0
10
2.42298665235168
20
-0.911611652351682
30
0.0
11
2.448875
21
-0.891746824526945
31
0.0
  0
LINE
 8
Layer0
10
2.40312182452695
20
-0.9375
30
0.0
11
2.42298665235168
21
-0.911611652351682
31
0.0
  0
LINE
 8
Layer0
10
2.39063427171387
20
-0.967647619362185
30
0.75
11
2.39063427171387
21
-0.967647619362185
31
0.0
  0
LINE
 8
Layer0
10
2.40312182452695
20
-0.9375
30
0.75
11
2.40312182452695
21
-0.9375
31
0.0
  0
LINE
 8
Layer0
10
2.386375
20
-1.0
30
0.75
11
2.386375
21
-1.0
31
0.0
  0
LINE
 8
Layer0
10
2.39063427171387
20
-1.03235238063782
30
0.75
11
2.39063427171387
21
-1.03235238063782
31
0.0
  0
LINE
 8
Layer0
10
2.40312182452695
20
-1.0625
30
0.75
11
2.40312182452695
21
-1.0625
31
0.0
  0
LINE
 8
Layer0
10
2.42298665235168
20
-1.08838834764832
30
0.75
11
2.42298665235168
21
-1.08838834764832
31
0.0
  0
LINE
 8
Layer0
10
2.448875
20
-1.10825317547305
30
0.75
11
2.448875
21
-1.10825317547305
31
0.0
  0
LINE
 8
Layer0
10
2.47902261936219
20
-1.12074072828613
30
0.75
11
2.47902261936219
21
-1.12074072828613
31
0.0
  0
LINE
 8
Layer0
10
2.511375
20
-1.125
30
0.75
11
2.511375
21
-1.125
31
0.0
  0
LINE
 8
Layer0
10
2.54372738063782
20
-1.12074072828613
30
0.75
11
2.54372738063782
21
-1.12074072828613
31
0.0
  0
LINE
 8
Layer0
10
2.573875
20
-1.10825317547305
30
0.75
11
2.573875
21
-1.10825317547305
31
0.0
  0
LINE
 8
Layer0
10
2.59976334764832
20
-1.08838834764832
30
0.75
11
2.59976334764832
21
-1.08838834764832
31
0.0
  0
LINE
 8
Layer0
10
2.61962817547305
20
-1.0625
30
0.75
11
2.61962817547305
21
-1.0625
31
0.0
  0
LINE
 8
Layer0
10
2.63211572828613
20
-1.03235238063781
30
0.75
11
2.63211572828613
21
-1.03235238063781
31
0.0
  0
LINE
 8
Layer0
10
2.636375
20
-1.0
30
0.75
11
2.636375
21
-1.0
31
0.0
  0
LINE
 8
Layer0
10
2.63211572828613
20
-0.967647619362185
30
0.75
11
2.63211572828613
21
-0.967647619362185
31
0.0
  0
LINE
 8
Layer0
10
2.61962817547305
20
-0.9375
30
0.75
11
2.61962817547305
21
-0.9375
31
0.0
  0
LINE
 8
Layer0
10
2.59976334764832
20
-0.911611652351682
30
0.75
11
2.59976334764832
21
-0.911611652351682
31
0.0
  0
LINE
 8
Layer0
10
2.573875
20
-0.891746824526945
30
0.75
11
2.573875
21
-0.891746824526945
31
0.0
  0
LINE
 8
Layer0
10
2.54372738063782
20
-0.879259271713866
30
0.75
11
2.54372738063782
21
-0.879259271713866
31
0.0
  0
LINE
 8
Layer0
10
2.511375
20
-0.875
30
0.75
11
2.511375
21
-0.875
31
0.0
  0
LINE
 8
Layer0
10
2.47902261936219
20
-0.879259271713867
30
0.75
11
2.47902261936219
21
-0.879259271713867
31
0.0
  0
LINE
 8
Layer0
10
2.448875
20
-0.891746824526945
30
0.75
11
2.448875
21
-0.891746824526945
31
0.0
  0
LINE
 8
Layer0
10
2.42298665235168
20
-0.911611652351682
30
0.75
11
2.42298665235168
21
-0.911611652351682
31
0.0
 0
ENDSEC
 0
EOF
