 0
SECTION
 2
ENTITIES
  0
LINE
 8
Layer0
10
0.251355123074518
20
0.712837092253776
30
0.0
11
0.263842675887602
21
0.682689472891591
31
0.0
  0
LINE
 8
Layer0
10
0.940289455251403
20
0.970048363893932
30
0.0
11
0.879625520062447
21
0.981118917094857
31
0.0
  0
LINE
 8
Layer0
10
0.942846991119453
20
1.23954246432364
30
0.0
11
0.812345704275074
21
1.24209216772364
31
0.0
  0
LINE
 8
Layer0
10
0.000623120341273875
20
0.693876607945181
30
0.5
11
0.0198950050342717
21
0.623741736034915
31
0.5
  0
LINE
 8
Layer0
10
0.867912887653887
20
0.98016462630137
30
0.0
11
0.818163388330888
21
0.976111268565171
31
0.0
  0
LINE
 8
Layer0
10
1.42622992394712
20
0.636936297418536
30
0.5
11
1.45211827159544
21
0.656801125243272
31
0.5
  0
LINE
 8
Layer0
10
1.55122992394712
20
1.06994899931076
30
0.5
11
1.46078706586056
21
1.10741165774999
31
0.5
  0
LINE
 8
Layer0
10
1.36372992394712
20
0.370189472891591
30
0.0
11
1.36372992394712
21
0.370189472891591
31
0.5
  0
LINE
 8
Layer0
10
1.10384233185715
20
0.733476840483033
30
0.0
11
1.10384233185715
21
0.733476840483033
31
0.5
  0
LINE
 8
Layer0
10
1.36372992394712
20
0.745189472891591
30
0.5
11
1.48872992394712
21
0.745189472891591
31
0.5
  0
LINE
 8
Layer0
10
1.10288804106366
20
0.745189472891591
30
0.0
11
1.09883468332747
21
0.794938972214593
31
0.0
  0
LINE
 8
Layer0
10
0.480349026833707
20
0.807689472891591
30
0.0
11
0.460484199008974
21
0.833577820539909
31
0.0
  0
LINE
 8
Layer0
10
0.00029649636772433
20
0.745189472891591
30
0.0
11
0.000623120341273875
21
0.693876607945181
31
0.0
  0
LINE
 8
Layer0
10
1.48872992394712
20
0.745189472891591
30
0.5
11
1.48447065223326
21
0.777541853529406
31
0.5
  0
LINE
 8
Layer0
10
1.34838083495259
20
0.622210218793412
30
0.5
11
1.36372992394712
21
0.620189472891591
31
0.5
  0
LINE
 8
Layer0
10
1.39608230458494
20
0.624448744605457
30
0.5
11
1.42622992394712
21
0.636936297418536
31
0.5
  0
LINE
 8
Layer0
10
0.805412887653887
20
0.518528208424847
30
0.0
11
0.805412887653887
21
0.518528208424847
31
0.5
  0
LINE
 8
Layer0
10
0.879625520062447
20
0.981118917094857
30
0.0
11
0.867912887653887
21
0.98016462630137
31
0.0
  0
LINE
 8
Layer0
10
0.339743470722837
20
0.865930201177724
30
0.5
11
0.309595851360655
21
0.853442648364646
31
0.5
  0
LINE
 8
Layer0
10
1.06637746363037
20
0.617081313578958
30
0.0
11
1.09277177865623
21
0.672812905294077
31
0.0
  0
LINE
 8
Layer0
10
0.309595851360655
20
0.636936297418536
30
0.5
11
0.339743470722837
21
0.624448744605457
31
0.5
  0
LINE
 8
Layer0
10
1.03115268669036
20
0.913815849360748
30
0.0
11
0.996021046966518
21
0.943654048868083
31
0.0
  0
LINE
 8
Layer0
10
1.7158534121009
20
0.866627025351634
30
0.5
11
1.68848945036629
21
0.932689472891591
31
0.5
  0
LINE
 8
Layer0
10
1.55122992394712
20
1.06994899931076
30
0.0
11
1.46078706586056
21
1.10741165774999
31
0.0
  0
LINE
 8
Layer0
10
0.263842675887602
20
0.807689472891591
30
0.0
11
0.251355123074518
21
0.777541853529406
31
0.0
  0
LINE
 8
Layer0
10
0.818163388330888
20
0.976111268565171
30
0.5
11
0.760091602763254
21
0.955366681276642
31
0.5
  0
LINE
 8
Layer0
10
0.0
20
0.791769268943032
30
0.0
11
0.0
21
0.791769268943032
31
0.5
  0
LINE
 8
Layer0
10
0.00029649636772433
20
0.745189472891591
30
0.5
11
0.000623120341273875
21
0.693876607945181
31
0.5
  0
LINE
 8
Layer0
10
1.47198309942017
20
0.807689472891591
30
0.5
11
1.45211827159544
21
0.833577820539909
31
0.5
  0
LINE
 8
Layer0
10
1.23872992394712
20
0.745189472891591
30
0.0
11
1.23872992394712
21
0.745189472891591
31
0.5
  0
LINE
 8
Layer0
10
1.47198309942017
20
0.682689472891591
30
0.5
11
1.48447065223326
21
0.712837092253776
31
0.5
  0
LINE
 8
Layer0
10
0.251355123074518
20
0.712837092253776
30
0.5
11
0.263842675887602
21
0.682689472891591
31
0.5
  0
LINE
 8
Layer0
10
0.372095851360655
20
0.870189472891591
30
0.5
11
0.339743470722837
21
0.865930201177724
31
0.5
  0
LINE
 8
Layer0
10
1.45211827159544
20
0.833577820539909
30
0.5
11
1.42622992394712
21
0.853442648364646
31
0.5
  0
LINE
 8
Layer0
10
0.492836579646792
20
0.712837092253776
30
0.0
11
0.492836579646792
21
0.712837092253776
31
0.5
  0
LINE
 8
Layer0
10
1.72595210880552
20
0.842246614805036
30
0.0
11
1.7158534121009
21
0.866627025351634
31
0.0
  0
LINE
 8
Layer0
10
0.263842675887602
20
0.807689472891591
30
0.5
11
0.251355123074518
21
0.777541853529406
31
0.5
  0
LINE
 8
Layer0
10
1.48872992394712
20
0.745189472891591
30
0.0
11
1.48447065223326
21
0.777541853529406
31
0.0
  0
LINE
 8
Layer0
10
0.631983443450622
20
0.756902105300148
30
0.5
11
0.632937734244109
21
0.745189472891591
31
0.5
  0
LINE
 8
Layer0
10
1.36372992394712
20
0.370189472891591
30
0.0
11
1.46078706586056
21
0.38296728803319
31
0.0
  0
LINE
 8
Layer0
10
0.226387212363974
20
1.09072383083844
30
0.5
11
0.141921241266417
21
1.04123786229435
31
0.5
  0
LINE
 8
Layer0
10
0.0265614934138085
20
0.599480833894909
30
0.5
11
0.0760474619578986
21
0.515014862797351
31
0.5
  0
LINE
 8
Layer0
10
0.709367659577822
20
0.920298864570929
30
0.5
11
0.704063832827345
21
0.914054113425356
31
0.5
  0
LINE
 8
Layer0
10
0.805412887653887
20
0.000593546875152562
30
0.0
11
0.805412887653887
21
0.000593546875152562
31
0.5
  0
LINE
 8
Layer0
10
1.55122992394712
20
0.420429946472426
30
0.0
11
1.62889496689208
21
0.480024429946635
31
0.0
  0
LINE
 8
Layer0
10
1.02645811572995
20
0.570080081212252
30
0.5
11
1.03141875191902
21
0.575920758138905
31
0.5
  0
LINE
 8
Layer0
10
1.03141875191902
20
0.575920758138905
30
0.5
11
1.06637746363037
21
0.617081313578958
31
0.5
  0
LINE
 8
Layer0
10
0.434595851360655
20
0.853442648364646
30
0.0
11
0.404448231998472
21
0.865930201177724
31
0.0
  0
LINE
 8
Layer0
10
1.39608230458494
20
0.865930201177724
30
0.5
11
1.36372992394712
21
0.870189472891591
31
0.5
  0
LINE
 8
Layer0
10
0.0265614934138085
20
0.599480833894909
30
0.0
11
0.0760474619578986
21
0.515014862797351
31
0.0
  0
LINE
 8
Layer0
10
1.09883468332747
20
0.794938972214593
30
0.5
11
1.07809009603893
21
0.853010757782224
31
0.5
  0
LINE
 8
Layer0
10
0.283707503712336
20
0.656801125243272
30
0.0
11
0.309595851360655
21
0.636936297418536
31
0.0
  0
LINE
 8
Layer0
10
0.460484199008974
20
0.656801125243272
30
0.5
11
0.480349026833707
21
0.682689472891591
31
0.5
  0
LINE
 8
Layer0
10
0.692803495974545
20
0.586644244815524
30
0.5
11
0.704158740104305
21
0.576999945760265
31
0.5
  0
LINE
 8
Layer0
10
0.372095851360655
20
0.620189472891591
30
0.0
11
0.38766185405035
21
0.62223877602314
31
0.0
  0
LINE
 8
Layer0
10
0.404448231998472
20
0.624448744605457
30
0.0
11
0.434595851360655
21
0.636936297418536
31
0.0
  0
LINE
 8
Layer0
10
1.48447065223326
20
0.712837092253776
30
0.5
11
1.48872992394712
21
0.745189472891591
31
0.5
  0
LINE
 8
Layer0
10
0.372095851360655
20
0.373390117898654
30
0.0
11
0.372095851360655
21
0.373390117898654
31
0.5
  0
LINE
 8
Layer0
10
0.704063832827345
20
0.914054113425356
30
0.5
11
0.669448311677399
21
0.873297632204223
31
0.5
  0
LINE
 8
Layer0
10
1.62889496689208
20
0.480024429946635
30
0.5
11
1.68848945036628
21
0.557689472891591
31
0.5
  0
LINE
 8
Layer0
10
1.46078706586056
20
0.38296728803319
30
0.0
11
1.55122992394712
21
0.420429946472426
31
0.0
  0
LINE
 8
Layer0
10
1.2753415762988
20
0.833577820539909
30
0.5
11
1.25547674847407
21
0.807689472891591
31
0.5
  0
LINE
 8
Layer0
10
0.247095851360655
20
0.745189472891591
30
0.5
11
0.372095851360655
21
0.745189472891591
31
0.5
  0
LINE
 8
Layer0
10
0.636991091980306
20
0.695439973568589
30
0.0
11
0.657735679268839
21
0.637368188000957
31
0.0
  0
LINE
 8
Layer0
10
0.680412887653887
20
0.000593546875152562
30
0.0
11
0.680412887653887
21
0.000593546875152562
31
0.5
  0
LINE
 8
Layer0
10
1.36372992394712
20
0.870189472891591
30
0.5
11
1.36372992394712
21
0.745189472891591
31
0.5
  0
LINE
 8
Layer0
10
1.30122992394712
20
0.636936297418536
30
0.0
11
1.3313775433093
21
0.624448744605457
31
0.0
  0
LINE
 8
Layer0
10
1.3313775433093
20
0.624448744605457
30
0.0
11
1.34838083495259
21
0.622210218793412
31
0.0
  0
LINE
 8
Layer0
10
0.795536320056371
20
0.52033058188925
30
0.0
11
0.805412887653887
21
0.518528208424847
31
0.0
  0
LINE
 8
Layer0
10
1.05541288765389
20
0.0
30
0.5
11
1.05541288765389
21
0.370861997633164
31
0.5
  0
LINE
 8
Layer0
10
0.283707503712336
20
0.656801125243272
30
0.5
11
0.309595851360655
21
0.636936297418536
31
0.5
  0
LINE
 8
Layer0
10
1.73872992394712
20
0.745189472891591
30
0.5
11
1.72595210880552
21
0.842246614805036
31
0.5
  0
LINE
 8
Layer0
10
1.10384233185715
20
0.733476840483033
30
0.0
11
1.10288804106366
21
0.745189472891591
31
0.0
  0
LINE
 8
Layer0
10
1.25547674847407
20
0.807689472891591
30
0.0
11
1.24298919566098
21
0.777541853529406
31
0.0
  0
LINE
 8
Layer0
10
0.709367659577822
20
0.920298864570929
30
0.0
11
0.704063832827345
21
0.914054113425356
31
0.0
  0
LINE
 8
Layer0
10
0.320782986414244
20
1.11666220391097
30
0.0
11
0.538711105405937
21
1.11666220391097
31
0.0
  0
LINE
 8
Layer0
10
0.571338947815065
20
1.14773623813568
30
0.0
11
0.538711105405937
21
1.11666220391097
31
0.0
  0
LINE
 8
Layer0
10
1.05541288765389
20
0.370861997633164
30
0.0
11
1.05541288765389
21
0.370861997633164
31
0.5
  0
LINE
 8
Layer0
10
0.0247345970114878
20
0.88648759381673
30
0.0
11
0.0195623354112229
21
0.866681006535013
31
0.0
  0
LINE
 8
Layer0
10
0.434595851360655
20
0.853442648364646
30
0.5
11
0.404448231998472
21
0.865930201177724
31
0.5
  0
LINE
 8
Layer0
10
0.309595851360655
20
0.853442648364646
30
0.5
11
0.283707503712336
21
0.833577820539909
31
0.5
  0
LINE
 8
Layer0
10
1.30122992394712
20
0.636936297418536
30
0.5
11
1.3313775433093
21
0.624448744605457
31
0.5
  0
LINE
 8
Layer0
10
1.2753415762988
20
0.656801125243272
30
0.5
11
1.30122992394712
21
0.636936297418536
31
0.5
  0
LINE
 8
Layer0
10
0.339743470722837
20
0.624448744605457
30
0.5
11
0.372095851360655
21
0.620189472891591
31
0.5
  0
LINE
 8
Layer0
10
0.795536320056371
20
0.52033058188925
30
0.5
11
0.805412887653887
21
0.518528208424847
31
0.5
  0
LINE
 8
Layer0
10
1.10384233185715
20
0.733476840483033
30
0.5
11
1.10288804106366
21
0.745189472891591
31
0.5
  0
LINE
 8
Layer0
10
1.36372992394712
20
0.870189472891591
30
0.0
11
1.34816392125742
21
0.868140169760041
31
0.0
  0
LINE
 8
Layer0
10
1.07809009603893
20
0.853010757782224
30
0.5
11
1.04302227933323
21
0.903734700967657
31
0.5
  0
LINE
 8
Layer0
10
0.404448231998472
20
0.865930201177724
30
0.0
11
0.387444940355181
21
0.86816872698977
31
0.0
  0
LINE
 8
Layer0
10
0.387444940355181
20
0.86816872698977
30
0.0
11
0.372095851360655
21
0.870189472891591
31
0.0
  0
LINE
 8
Layer0
10
0.073141289465255
20
0.971576685255565
30
0.5
11
0.0247345970114878
21
0.88648759381673
31
0.5
  0
LINE
 8
Layer0
10
0.497095851360655
20
0.745189472891591
30
0.0
11
0.492836579646792
21
0.777541853529406
31
0.0
  0
LINE
 8
Layer0
10
1.68848945036628
20
0.557689472891591
30
0.0
11
1.71585341210088
21
0.623751920431547
31
0.0
  0
LINE
 8
Layer0
10
1.72595210880552
20
0.648132330978145
30
0.0
11
1.73872992394712
21
0.745189472891591
31
0.0
  0
LINE
 8
Layer0
10
1.23872992394712
20
0.745189472891591
30
0.0
11
1.24298919566098
21
0.712837092253776
31
0.0
  0
LINE
 8
Layer0
10
0.685631229148854
20
1.21077877364136
30
0.0
11
0.571338947815065
21
1.14773623813568
31
0.0
  0
LINE
 8
Layer0
10
1.05541288765389
20
0.0
30
0.0
11
1.05541288765389
21
0.370861997633164
31
0.0
  0
LINE
 8
Layer0
10
0.692803495974545
20
0.586644244815524
30
0.0
11
0.704158740104305
21
0.576999945760265
31
0.0
  0
LINE
 8
Layer0
10
0.657735679268839
20
0.637368188000957
30
0.0
11
0.692803495974545
21
0.586644244815524
31
0.0
  0
LINE
 8
Layer0
10
0.0
20
0.791769268943032
30
0.0
11
0.00029649636772433
21
0.745189472891591
31
0.0
  0
LINE
 8
Layer0
10
0.372095851360655
20
0.870189472891591
30
0.0
11
0.339743470722837
21
0.865930201177724
31
0.0
  0
LINE
 8
Layer0
10
0.339743470722837
20
0.865930201177724
30
0.0
11
0.309595851360655
21
0.853442648364646
31
0.0
  0
LINE
 8
Layer0
10
0.805412887653887
20
0.000593546875152562
30
0.5
11
0.805412887653887
21
0.518528208424847
31
0.5
  0
LINE
 8
Layer0
10
0.760091602763254
20
0.955366681276642
30
0.5
11
0.709367659577822
21
0.920298864570929
31
0.5
  0
LINE
 8
Layer0
10
0.0195623354112229
20
0.866681006535013
30
0.0
11
0.0
21
0.791769268943032
31
0.0
  0
LINE
 8
Layer0
10
1.3313775433093
20
0.865930201177724
30
0.5
11
1.30122992394712
21
0.853442648364646
31
0.5
  0
LINE
 8
Layer0
10
1.36372992394712
20
0.620189472891591
30
0.0
11
1.39608230458494
21
0.624448744605457
31
0.0
  0
LINE
 8
Layer0
10
1.39608230458494
20
0.624448744605457
30
0.0
11
1.42622992394712
21
0.636936297418536
31
0.0
  0
LINE
 8
Layer0
10
0.704158740104305
20
0.576999945760265
30
0.0
11
0.739804728341255
21
0.546724896915098
31
0.0
  0
LINE
 8
Layer0
10
0.320782986414244
20
1.11666220391097
30
0.5
11
0.538711105405937
21
1.11666220391097
31
0.5
  0
LINE
 8
Layer0
10
0.480349026833707
20
0.682689472891591
30
0.5
11
0.492836579646792
21
0.712837092253776
31
0.5
  0
LINE
 8
Layer0
10
1.36372992394712
20
0.870189472891591
30
0.5
11
1.34816392125742
21
0.868140169760041
31
0.5
  0
LINE
 8
Layer0
10
1.36372992394712
20
0.370189472891591
30
0.5
11
1.05541288765389
21
0.370861997633164
31
0.5
  0
LINE
 8
Layer0
10
1.72595210880552
20
0.842246614805036
30
0.5
11
1.7158534121009
21
0.866627025351634
31
0.5
  0
LINE
 8
Layer0
10
0.230797730435512
20
0.39782821854242
30
0.0
11
0.325516055309208
21
0.373093621530936
31
0.0
  0
LINE
 8
Layer0
10
0.325516055309208
20
0.373093621530936
30
0.0
11
0.372095851360655
21
0.373390117898654
31
0.0
  0
LINE
 8
Layer0
10
1.04302227933323
20
0.903734700967657
30
0.5
11
1.03115268669036
21
0.913815849360748
31
0.5
  0
LINE
 8
Layer0
10
0.497095851360655
20
0.745189472891591
30
0.0
11
0.497095851360655
21
0.745189472891591
31
0.5
  0
LINE
 8
Layer0
10
0.497095851360655
20
0.745189472891591
30
0.5
11
0.492836579646792
21
0.777541853529406
31
0.5
  0
LINE
 8
Layer0
10
0.631983443450622
20
0.756902105300148
30
0.0
11
0.631983443450622
21
0.756902105300148
31
0.5
  0
LINE
 8
Layer0
10
1.46078706586056
20
0.38296728803319
30
0.5
11
1.55122992394712
21
0.420429946472426
31
0.5
  0
LINE
 8
Layer0
10
1.04302227933323
20
0.903734700967657
30
0.0
11
1.03115268669036
21
0.913815849360748
31
0.0
  0
LINE
 8
Layer0
10
0.0247345970114878
20
0.88648759381673
30
0.5
11
0.0195623354112229
21
0.866681006535013
31
0.5
  0
LINE
 8
Layer0
10
0.320782986414244
20
1.11666220391097
30
0.5
11
0.226387212363974
21
1.09072383083844
31
0.5
  0
LINE
 8
Layer0
10
0.631983443450622
20
0.756902105300148
30
0.0
11
0.632937734244109
21
0.745189472891591
31
0.0
  0
LINE
 8
Layer0
10
0.760091602763254
20
0.955366681276642
30
0.0
11
0.709367659577822
21
0.920298864570929
31
0.0
  0
LINE
 8
Layer0
10
1.25547674847407
20
0.682689472891591
30
0.5
11
1.2753415762988
21
0.656801125243272
31
0.5
  0
LINE
 8
Layer0
10
1.34816392125742
20
0.868140169760041
30
0.5
11
1.3313775433093
21
0.865930201177724
31
0.5
  0
LINE
 8
Layer0
10
0.669448311677399
20
0.873297632204223
30
0.5
11
0.643053996651545
21
0.817566040489105
31
0.5
  0
LINE
 8
Layer0
10
0.372095851360655
20
0.620189472891591
30
0.5
11
0.38766185405035
21
0.62223877602314
31
0.5
  0
LINE
 8
Layer0
10
0.320782986414244
20
1.11666220391097
30
0.0
11
0.320782986414244
21
1.11666220391097
31
0.5
  0
LINE
 8
Layer0
10
0.538711105405937
20
1.11666220391097
30
0.0
11
0.538711105405937
21
1.11666220391097
31
0.5
  0
LINE
 8
Layer0
10
0.38766185405035
20
0.62223877602314
30
0.0
11
0.404448231998472
21
0.624448744605457
31
0.0
  0
LINE
 8
Layer0
10
0.226387212363974
20
1.09072383083844
30
0.0
11
0.141921241266417
21
1.04123786229435
31
0.0
  0
LINE
 8
Layer0
10
1.36372992394712
20
0.370189472891591
30
0.0
11
1.05541288765389
21
0.370861997633164
31
0.0
  0
LINE
 8
Layer0
10
0.325516055309208
20
0.373093621530936
30
0.5
11
0.372095851360655
21
0.373390117898654
31
0.5
  0
LINE
 8
Layer0
10
1.46078706586056
20
1.10741165774999
30
0.5
11
1.36372992394712
21
1.12018947289159
31
0.5
  0
LINE
 8
Layer0
10
1.7158534121009
20
0.866627025351634
30
0.0
11
1.68848945036629
21
0.932689472891591
31
0.0
  0
LINE
 8
Layer0
10
1.30122992394712
20
0.853442648364646
30
0.5
11
1.2753415762988
21
0.833577820539909
31
0.5
  0
LINE
 8
Layer0
10
1.42622992394712
20
0.853442648364646
30
0.0
11
1.39608230458494
21
0.865930201177724
31
0.0
  0
LINE
 8
Layer0
10
0.0198950050342717
20
0.623741736034915
30
0.5
11
0.0265614934138085
21
0.599480833894909
31
0.5
  0
LINE
 8
Layer0
10
0.251355123074518
20
0.777541853529406
30
0.0
11
0.247095851360655
21
0.745189472891591
31
0.0
  0
LINE
 8
Layer0
10
0.636991091980306
20
0.695439973568589
30
0.5
11
0.657735679268839
21
0.637368188000957
31
0.5
  0
LINE
 8
Layer0
10
1.42622992394712
20
0.636936297418536
30
0.0
11
1.45211827159544
21
0.656801125243272
31
0.0
  0
LINE
 8
Layer0
10
1.45211827159544
20
0.656801125243272
30
0.0
11
1.47198309942017
21
0.682689472891591
31
0.0
  0
LINE
 8
Layer0
10
1.47198309942017
20
0.682689472891591
30
0.0
11
1.48447065223326
21
0.712837092253776
31
0.0
  0
LINE
 8
Layer0
10
1.48447065223326
20
0.712837092253776
30
0.0
11
1.48872992394712
21
0.745189472891591
31
0.0
  0
LINE
 8
Layer0
10
1.06824164264711
20
1.20330342151449
30
0.5
11
0.942846991119453
21
1.23954246432364
31
0.5
  0
LINE
 8
Layer0
10
0.632937734244109
20
0.745189472891591
30
0.5
11
0.636991091980306
21
0.695439973568589
31
0.5
  0
LINE
 8
Layer0
10
0.372095851360655
20
0.870189472891591
30
0.5
11
0.372095851360655
21
0.745189472891591
31
0.5
  0
LINE
 8
Layer0
10
0.805412887653887
20
0.000593546875152562
30
0.0
11
0.805412887653887
21
0.518528208424847
31
0.0
  0
LINE
 8
Layer0
10
0.263842675887602
20
0.682689472891591
30
0.0
11
0.283707503712336
21
0.656801125243272
31
0.0
  0
LINE
 8
Layer0
10
1.36372992394712
20
0.620189472891591
30
0.5
11
1.39608230458494
21
0.624448744605457
31
0.5
  0
LINE
 8
Layer0
10
0.685631229148854
20
1.21077877364136
30
0.5
11
0.571338947815065
21
1.14773623813568
31
0.5
  0
LINE
 8
Layer0
10
1.3313775433093
20
0.865930201177724
30
0.0
11
1.30122992394712
21
0.853442648364646
31
0.0
  0
LINE
 8
Layer0
10
1.30122992394712
20
0.853442648364646
30
0.0
11
1.2753415762988
21
0.833577820539909
31
0.0
  0
LINE
 8
Layer0
10
0.657735679268839
20
0.637368188000957
30
0.5
11
0.692803495974545
21
0.586644244815524
31
0.5
  0
LINE
 8
Layer0
10
0.867912887653887
20
0.745189472891591
30
0.5
11
1.10288804106366
21
0.745189472891591
31
0.5
  0
LINE
 8
Layer0
10
0.387444940355181
20
0.86816872698977
30
0.5
11
0.372095851360655
21
0.870189472891591
31
0.5
  0
LINE
 8
Layer0
10
0.404448231998472
20
0.865930201177724
30
0.5
11
0.387444940355181
21
0.86816872698977
31
0.5
  0
LINE
 8
Layer0
10
0.492836579646792
20
0.712837092253776
30
0.5
11
0.497095851360655
21
0.745189472891591
31
0.5
  0
LINE
 8
Layer0
10
0.14570863899668
20
0.446234910996186
30
0.0
11
0.230797730435512
21
0.39782821854242
31
0.0
  0
LINE
 8
Layer0
10
0.460484199008974
20
0.833577820539909
30
0.0
11
0.434595851360655
21
0.853442648364646
31
0.0
  0
LINE
 8
Layer0
10
0.0760474619578986
20
0.515014862797351
30
0.0
11
0.14570863899668
21
0.446234910996186
31
0.0
  0
LINE
 8
Layer0
10
0.283707503712336
20
0.833577820539909
30
0.5
11
0.263842675887602
21
0.807689472891591
31
0.5
  0
LINE
 8
Layer0
10
0.930412887653887
20
0.0
30
0.5
11
1.05541288765389
21
0.0
31
0.5
  0
LINE
 8
Layer0
10
0.434595851360655
20
0.636936297418536
30
0.0
11
0.460484199008974
21
0.656801125243272
31
0.0
  0
LINE
 8
Layer0
10
0.141921241266417
20
1.04123786229435
30
0.0
11
0.073141289465255
21
0.971576685255565
31
0.0
  0
LINE
 8
Layer0
10
1.24298919566098
20
0.777541853529406
30
0.5
11
1.23872992394712
21
0.745189472891591
31
0.5
  0
LINE
 8
Layer0
10
0.339743470722837
20
0.624448744605457
30
0.0
11
0.372095851360655
21
0.620189472891591
31
0.0
  0
LINE
 8
Layer0
10
1.45211827159544
20
0.833577820539909
30
0.0
11
1.42622992394712
21
0.853442648364646
31
0.0
  0
LINE
 8
Layer0
10
0.704063832827345
20
0.914054113425356
30
0.0
11
0.669448311677399
21
0.873297632204223
31
0.0
  0
LINE
 8
Layer0
10
0.571338947815065
20
1.14773623813568
30
0.5
11
0.538711105405937
21
1.11666220391097
31
0.5
  0
LINE
 8
Layer0
10
0.930412887653887
20
0.0
30
0.0
11
1.05541288765389
21
0.0
31
0.0
  0
LINE
 8
Layer0
10
0.879625520062447
20
0.981118917094857
30
0.5
11
0.867912887653887
21
0.98016462630137
31
0.5
  0
LINE
 8
Layer0
10
0.867912887653887
20
0.745189472891591
30
0.5
11
0.867912887653887
21
0.98016462630137
31
0.5
  0
LINE
 8
Layer0
10
1.09277177865623
20
0.672812905294077
30
0.5
11
1.10384233185715
21
0.733476840483033
31
0.5
  0
LINE
 8
Layer0
10
0.372095851360655
20
0.745189472891591
30
0.5
11
0.497095851360655
21
0.745189472891591
31
0.5
  0
LINE
 8
Layer0
10
0.372095851360655
20
0.373390117898654
30
0.5
11
0.680412887653887
21
0.372693245213068
31
0.5
  0
LINE
 8
Layer0
10
0.680412887653887
20
0.000593546875152562
30
0.5
11
0.680412887653887
21
0.372693245213068
31
0.5
  0
LINE
 8
Layer0
10
0.930412887653887
20
0.518822451480263
30
0.5
11
0.97573417254452
21
0.53501226450654
31
0.5
  0
LINE
 8
Layer0
10
1.3313775433093
20
0.624448744605457
30
0.5
11
1.34838083495259
21
0.622210218793412
31
0.5
  0
LINE
 8
Layer0
10
0.251355123074518
20
0.777541853529406
30
0.5
11
0.247095851360655
21
0.745189472891591
31
0.5
  0
LINE
 8
Layer0
10
0.669448311677399
20
0.873297632204223
30
0.0
11
0.643053996651545
21
0.817566040489105
31
0.0
  0
LINE
 8
Layer0
10
0.818163388330888
20
0.976111268565171
30
0.0
11
0.760091602763254
21
0.955366681276642
31
0.0
  0
LINE
 8
Layer0
10
0.309595851360655
20
0.636936297418536
30
0.0
11
0.339743470722837
21
0.624448744605457
31
0.0
  0
LINE
 8
Layer0
10
0.492836579646792
20
0.777541853529406
30
0.5
11
0.480349026833707
21
0.807689472891591
31
0.5
  0
LINE
 8
Layer0
10
0.247095851360655
20
0.745189472891591
30
0.0
11
0.251355123074518
21
0.712837092253776
31
0.0
  0
LINE
 8
Layer0
10
1.10288804106366
20
0.745189472891591
30
0.5
11
1.09883468332747
21
0.794938972214593
31
0.5
  0
LINE
 8
Layer0
10
1.47198309942017
20
0.807689472891591
30
0.0
11
1.45211827159544
21
0.833577820539909
31
0.0
  0
LINE
 8
Layer0
10
1.25547674847407
20
0.807689472891591
30
0.5
11
1.24298919566098
21
0.777541853529406
31
0.5
  0
LINE
 8
Layer0
10
0.805412887653887
20
0.000593546875152562
30
0.5
11
0.680412887653887
21
0.000593546875152562
31
0.5
  0
LINE
 8
Layer0
10
0.930412887653887
20
0.518822451480263
30
0.0
11
0.97573417254452
21
0.53501226450654
31
0.0
  0
LINE
 8
Layer0
10
1.71585341210088
20
0.623751920431547
30
0.0
11
1.72595210880552
21
0.648132330978145
31
0.0
  0
LINE
 8
Layer0
10
1.48447065223326
20
0.777541853529406
30
0.0
11
1.47198309942017
21
0.807689472891591
31
0.0
  0
LINE
 8
Layer0
10
1.48447065223326
20
0.712837092253776
30
0.0
11
1.48447065223326
21
0.712837092253776
31
0.5
  0
LINE
 8
Layer0
10
1.48872992394712
20
0.745189472891591
30
0.0
11
1.48872992394712
21
0.745189472891591
31
0.5
  0
LINE
 8
Layer0
10
1.03115268669036
20
0.913815849360748
30
0.5
11
0.996021046966518
21
0.943654048868083
31
0.5
  0
LINE
 8
Layer0
10
0.0
20
0.791769268943032
30
0.5
11
0.00029649636772433
21
0.745189472891591
31
0.5
  0
LINE
 8
Layer0
10
0.320782986414244
20
1.11666220391097
30
0.0
11
0.226387212363974
21
1.09072383083844
31
0.0
  0
LINE
 8
Layer0
10
0.14570863899668
20
0.446234910996186
30
0.5
11
0.230797730435512
21
0.39782821854242
31
0.5
  0
LINE
 8
Layer0
10
0.643053996651545
20
0.817566040489105
30
0.0
11
0.631983443450622
21
0.756902105300148
31
0.0
  0
LINE
 8
Layer0
10
0.930412887653887
20
0.0
30
0.5
11
0.930412887653887
21
0.518822451480263
31
0.5
  0
LINE
 8
Layer0
10
1.05541288765389
20
0.0
30
0.0
11
1.05541288765389
21
0.0
31
0.5
  0
LINE
 8
Layer0
10
1.68848945036628
20
0.557689472891591
30
0.5
11
1.71585341210088
21
0.623751920431547
31
0.5
  0
LINE
 8
Layer0
10
1.71585341210088
20
0.623751920431547
30
0.5
11
1.72595210880552
21
0.648132330978145
31
0.5
  0
LINE
 8
Layer0
10
1.42622992394712
20
0.853442648364646
30
0.5
11
1.39608230458494
21
0.865930201177724
31
0.5
  0
LINE
 8
Layer0
10
0.460484199008974
20
0.833577820539909
30
0.5
11
0.434595851360655
21
0.853442648364646
31
0.5
  0
LINE
 8
Layer0
10
1.09883468332747
20
0.794938972214593
30
0.0
11
1.07809009603893
21
0.853010757782224
31
0.0
  0
LINE
 8
Layer0
10
0.247095851360655
20
0.745189472891591
30
0.5
11
0.251355123074518
21
0.712837092253776
31
0.5
  0
LINE
 8
Layer0
10
0.805412887653887
20
0.000593546875152562
30
0.0
11
0.680412887653887
21
0.000593546875152562
31
0.0
  0
LINE
 8
Layer0
10
1.46078706586056
20
1.10741165774999
30
0.0
11
1.36372992394712
21
1.12018947289159
31
0.0
  0
LINE
 8
Layer0
10
0.97573417254452
20
0.53501226450654
30
0.5
11
1.02645811572995
21
0.570080081212252
31
0.5
  0
LINE
 8
Layer0
10
1.19503940564918
20
1.12018947289159
30
0.0
11
1.17998422058091
21
1.13584467017579
31
0.0
  0
LINE
 8
Layer0
10
0.632937734244109
20
0.745189472891591
30
0.0
11
0.636991091980306
21
0.695439973568589
31
0.0
  0
LINE
 8
Layer0
10
1.36372992394712
20
0.745189472891591
30
0.5
11
1.36372992394712
21
0.620189472891591
31
0.5
  0
LINE
 8
Layer0
10
1.73872992394712
20
0.745189472891591
30
0.0
11
1.72595210880552
21
0.842246614805036
31
0.0
  0
LINE
 8
Layer0
10
0.372095851360655
20
0.745189472891591
30
0.5
11
0.372095851360655
21
0.620189472891591
31
0.5
  0
LINE
 8
Layer0
10
0.942846991119453
20
1.23954246432364
30
0.5
11
0.812345704275074
21
1.24209216772364
31
0.5
  0
LINE
 8
Layer0
10
0.812345704275074
20
1.24209216772364
30
0.5
11
0.685631229148854
21
1.21077877364136
31
0.5
  0
LINE
 8
Layer0
10
1.68848945036629
20
0.932689472891591
30
0.0
11
1.62889496689208
21
1.01035451583655
31
0.0
  0
LINE
 8
Layer0
10
0.739804728341255
20
0.546724896915098
30
0.0
11
0.795536320056371
21
0.52033058188925
31
0.0
  0
LINE
 8
Layer0
10
1.62889496689208
20
1.01035451583655
30
0.0
11
1.55122992394712
21
1.06994899931076
31
0.0
  0
LINE
 8
Layer0
10
0.0760474619578986
20
0.515014862797351
30
0.5
11
0.14570863899668
21
0.446234910996186
31
0.5
  0
LINE
 8
Layer0
10
0.372095851360655
20
0.373390117898654
30
0.0
11
0.680412887653887
21
0.372693245213068
31
0.0
  0
LINE
 8
Layer0
10
0.480349026833707
20
0.682689472891591
30
0.0
11
0.492836579646792
21
0.712837092253776
31
0.0
  0
LINE
 8
Layer0
10
1.23872992394712
20
0.745189472891591
30
0.5
11
1.36372992394712
21
0.745189472891591
31
0.5
  0
LINE
 8
Layer0
10
1.68848945036629
20
0.932689472891591
30
0.5
11
1.62889496689208
21
1.01035451583655
31
0.5
  0
LINE
 8
Layer0
10
1.24298919566098
20
0.712837092253776
30
0.5
11
1.25547674847407
21
0.682689472891591
31
0.5
  0
LINE
 8
Layer0
10
0.739804728341255
20
0.546724896915098
30
0.5
11
0.795536320056371
21
0.52033058188925
31
0.5
  0
LINE
 8
Layer0
10
1.19503940564918
20
1.12018947289159
30
0.0
11
1.19503940564918
21
1.12018947289159
31
0.5
  0
LINE
 8
Layer0
10
1.07809009603893
20
0.853010757782224
30
0.0
11
1.04302227933323
21
0.903734700967657
31
0.0
  0
LINE
 8
Layer0
10
1.06637746363037
20
0.617081313578958
30
0.5
11
1.09277177865623
21
0.672812905294077
31
0.5
  0
LINE
 8
Layer0
10
1.72595210880552
20
0.648132330978145
30
0.5
11
1.73872992394712
21
0.745189472891591
31
0.5
  0
LINE
 8
Layer0
10
1.02645811572995
20
0.570080081212252
30
0.0
11
1.03141875191902
21
0.575920758138905
31
0.0
  0
LINE
 8
Layer0
10
1.2753415762988
20
0.656801125243272
30
0.0
11
1.30122992394712
21
0.636936297418536
31
0.0
  0
LINE
 8
Layer0
10
1.24298919566098
20
0.777541853529406
30
0.0
11
1.23872992394712
21
0.745189472891591
31
0.0
  0
LINE
 8
Layer0
10
1.25547674847407
20
0.682689472891591
30
0.0
11
1.2753415762988
21
0.656801125243272
31
0.0
  0
LINE
 8
Layer0
10
0.704158740104305
20
0.576999945760265
30
0.5
11
0.739804728341255
21
0.546724896915098
31
0.5
  0
LINE
 8
Layer0
10
0.460484199008974
20
0.656801125243272
30
0.0
11
0.480349026833707
21
0.682689472891591
31
0.0
  0
LINE
 8
Layer0
10
0.073141289465255
20
0.971576685255565
30
0.0
11
0.0247345970114878
21
0.88648759381673
31
0.0
  0
LINE
 8
Layer0
10
0.680412887653887
20
0.000593546875152562
30
0.0
11
0.680412887653887
21
0.372693245213068
31
0.0
  0
LINE
 8
Layer0
10
1.62889496689208
20
0.480024429946635
30
0.0
11
1.68848945036628
21
0.557689472891591
31
0.0
  0
LINE
 8
Layer0
10
1.73872992394712
20
0.745189472891591
30
0.0
11
1.73872992394712
21
0.745189472891591
31
0.5
  0
LINE
 8
Layer0
10
1.17998422058091
20
1.13584467017579
30
0.5
11
1.06824164264711
21
1.20330342151449
31
0.5
  0
LINE
 8
Layer0
10
1.23872992394712
20
0.745189472891591
30
0.5
11
1.24298919566098
21
0.712837092253776
31
0.5
  0
LINE
 8
Layer0
10
1.72595210880552
20
0.648132330978145
30
0.0
11
1.72595210880552
21
0.648132330978145
31
0.5
  0
LINE
 8
Layer0
10
1.34838083495259
20
0.622210218793412
30
0.0
11
1.36372992394712
21
0.620189472891591
31
0.0
  0
LINE
 8
Layer0
10
0.404448231998472
20
0.624448744605457
30
0.5
11
0.434595851360655
21
0.636936297418536
31
0.5
  0
LINE
 8
Layer0
10
1.62889496689208
20
1.01035451583655
30
0.5
11
1.55122992394712
21
1.06994899931076
31
0.5
  0
LINE
 8
Layer0
10
1.09277177865623
20
0.672812905294077
30
0.0
11
1.10384233185715
21
0.733476840483033
31
0.0
  0
LINE
 8
Layer0
10
0.680412887653887
20
0.372693245213068
30
0.0
11
0.680412887653887
21
0.372693245213068
31
0.5
  0
LINE
 8
Layer0
10
1.34816392125742
20
0.868140169760041
30
0.0
11
1.3313775433093
21
0.865930201177724
31
0.0
  0
LINE
 8
Layer0
10
1.03141875191902
20
0.575920758138905
30
0.0
11
1.06637746363037
21
0.617081313578958
31
0.0
  0
LINE
 8
Layer0
10
0.867912887653887
20
0.98016462630137
30
0.5
11
0.818163388330888
21
0.976111268565171
31
0.5
  0
LINE
 8
Layer0
10
0.0198950050342717
20
0.623741736034915
30
0.0
11
0.0265614934138085
21
0.599480833894909
31
0.0
  0
LINE
 8
Layer0
10
0.996021046966518
20
0.943654048868083
30
0.0
11
0.940289455251403
21
0.970048363893932
31
0.0
  0
LINE
 8
Layer0
10
1.45211827159544
20
0.656801125243272
30
0.5
11
1.47198309942017
21
0.682689472891591
31
0.5
  0
LINE
 8
Layer0
10
0.812345704275074
20
1.24209216772364
30
0.0
11
0.685631229148854
21
1.21077877364136
31
0.0
  0
LINE
 8
Layer0
10
0.930412887653887
20
0.0
30
0.0
11
0.930412887653887
21
0.518822451480263
31
0.0
  0
LINE
 8
Layer0
10
0.643053996651545
20
0.817566040489105
30
0.5
11
0.631983443450622
21
0.756902105300148
31
0.5
  0
LINE
 8
Layer0
10
0.247095851360655
20
0.745189472891591
30
0.0
11
0.247095851360655
21
0.745189472891591
31
0.5
  0
LINE
 8
Layer0
10
1.17998422058091
20
1.13584467017579
30
0.0
11
1.06824164264711
21
1.20330342151449
31
0.0
  0
LINE
 8
Layer0
10
0.141921241266417
20
1.04123786229435
30
0.5
11
0.073141289465255
21
0.971576685255565
31
0.5
  0
LINE
 8
Layer0
10
0.230797730435512
20
0.39782821854242
30
0.5
11
0.325516055309208
21
0.373093621530936
31
0.5
  0
LINE
 8
Layer0
10
0.940289455251403
20
0.970048363893932
30
0.5
11
0.879625520062447
21
0.981118917094857
31
0.5
  0
LINE
 8
Layer0
10
0.996021046966518
20
0.943654048868083
30
0.5
11
0.940289455251403
21
0.970048363893932
31
0.5
  0
LINE
 8
Layer0
10
0.000623120341273875
20
0.693876607945181
30
0.0
11
0.0198950050342717
21
0.623741736034915
31
0.0
  0
LINE
 8
Layer0
10
0.283707503712336
20
0.833577820539909
30
0.0
11
0.263842675887602
21
0.807689472891591
31
0.0
  0
LINE
 8
Layer0
10
1.36372992394712
20
1.12018947289159
30
0.0
11
1.19503940564918
21
1.12018947289159
31
0.0
  0
LINE
 8
Layer0
10
1.55122992394712
20
0.420429946472426
30
0.5
11
1.62889496689208
21
0.480024429946635
31
0.5
  0
LINE
 8
Layer0
10
1.36372992394712
20
1.12018947289159
30
0.5
11
1.19503940564918
21
1.12018947289159
31
0.5
  0
LINE
 8
Layer0
10
0.38766185405035
20
0.62223877602314
30
0.5
11
0.404448231998472
21
0.624448744605457
31
0.5
  0
LINE
 8
Layer0
10
0.492836579646792
20
0.712837092253776
30
0.0
11
0.497095851360655
21
0.745189472891591
31
0.0
  0
LINE
 8
Layer0
10
1.48447065223326
20
0.777541853529406
30
0.5
11
1.47198309942017
21
0.807689472891591
31
0.5
  0
LINE
 8
Layer0
10
0.480349026833707
20
0.807689472891591
30
0.5
11
0.460484199008974
21
0.833577820539909
31
0.5
  0
LINE
 8
Layer0
10
1.36372992394712
20
1.12018947289159
30
0.0
11
1.36372992394712
21
1.12018947289159
31
0.5
  0
LINE
 8
Layer0
10
1.2753415762988
20
0.833577820539909
30
0.0
11
1.25547674847407
21
0.807689472891591
31
0.0
  0
LINE
 8
Layer0
10
1.39608230458494
20
0.865930201177724
30
0.0
11
1.36372992394712
21
0.870189472891591
31
0.0
  0
LINE
 8
Layer0
10
1.24298919566098
20
0.712837092253776
30
0.0
11
1.25547674847407
21
0.682689472891591
31
0.0
  0
LINE
 8
Layer0
10
0.309595851360655
20
0.853442648364646
30
0.0
11
0.283707503712336
21
0.833577820539909
31
0.0
  0
LINE
 8
Layer0
10
1.19503940564918
20
1.12018947289159
30
0.5
11
1.17998422058091
21
1.13584467017579
31
0.5
  0
LINE
 8
Layer0
10
1.06824164264711
20
1.20330342151449
30
0.0
11
0.942846991119453
21
1.23954246432364
31
0.0
  0
LINE
 8
Layer0
10
0.97573417254452
20
0.53501226450654
30
0.0
11
1.02645811572995
21
0.570080081212252
31
0.0
  0
LINE
 8
Layer0
10
0.0195623354112229
20
0.866681006535013
30
0.5
11
0.0
21
0.791769268943032
31
0.5
  0
LINE
 8
Layer0
10
1.36372992394712
20
0.370189472891591
30
0.5
11
1.46078706586056
21
0.38296728803319
31
0.5
  0
LINE
 8
Layer0
10
0.492836579646792
20
0.777541853529406
30
0.0
11
0.480349026833707
21
0.807689472891591
31
0.0
  0
LINE
 8
Layer0
10
1.24298919566098
20
0.777541853529406
30
0.0
11
1.24298919566098
21
0.777541853529406
31
0.5
  0
LINE
 8
Layer0
10
0.930412887653887
20
0.518822451480263
30
0.0
11
0.930412887653887
21
0.518822451480263
31
0.5
  0
LINE
 8
Layer0
10
0.251355123074518
20
0.777541853529406
30
0.0
11
0.251355123074518
21
0.777541853529406
31
0.5
  0
LINE
 8
Layer0
10
0.434595851360655
20
0.636936297418536
30
0.5
11
0.460484199008974
21
0.656801125243272
31
0.5
  0
LINE
 8
Layer0
10
0.263842675887602
20
0.682689472891591
30
0.5
11
0.283707503712336
21
0.656801125243272
31
0.5
  0
LINE
 8
Layer0
10
0.930412887653887
20
0.0
30
0.0
11
0.930412887653887
21
0.0
31
0.5
 0
ENDSEC
 0
EOF
